<?xml version="1.0" encoding="iso-8859-1"?>
<!-- Generator: Adobe Illustrator 19.0.0, SVG Export Plug-In . SVG Version: 6.00 Build 0)  -->
<svg version="1.1" id="Capa_1" xmlns="http://www.w3.org/2000/svg" xmlns:xlink="http://www.w3.org/1999/xlink" x="0px" y="0px"
	 viewBox="0 0 508 508" style="enable-background:new 0 0 508 508;" xml:space="preserve">
<g>
	<g>
		<path d="M254,0C151,0,67.2,83.8,67.2,186.8c0,100.5,173.3,305.2,180.6,313.9l6.2,7.3l6.2-7.3c7.4-8.7,180.6-213.4,180.6-313.9
			C440.8,83.8,357,0,254,0z M254,482.8c-31.3-38-170.6-211.6-170.6-296c0-94.1,76.5-170.6,170.6-170.6s170.6,76.5,170.6,170.6
			C424.6,271.2,285.3,444.8,254,482.8z"/>
	</g>
</g>
<g>
	<g>
		<path d="M254,56.9c-71.7,0-130,58.3-130,130s58.3,130,130,130s130-58.3,130-130S325.7,56.9,254,56.9z M254,300.5
			c-27.8,0-53.2-10-73-26.6c1.2-39.3,33.4-70.8,73-70.8c39.6,0,71.8,31.6,73,70.8C307.2,290.5,281.8,300.5,254,300.5z M221.5,154.3
			c0-17.9,14.6-32.5,32.5-32.5c17.9,0,32.5,14.6,32.5,32.5c0,17.9-14.6,32.5-32.5,32.5C236.1,186.8,221.5,172.2,221.5,154.3z
			 M341.7,259.1c-6-31-28.1-56.2-57.2-66.9c11.1-8.9,18.2-22.6,18.2-38c0-26.9-21.9-48.7-48.7-48.7c-26.8,0-48.7,21.9-48.7,48.7
			c0,15.3,7.1,29,18.2,38c-29.1,10.6-51.2,35.9-57.2,66.9c-16.3-19.7-26-44.9-26-72.3c0-62.7,51-113.7,113.7-113.7
			s113.7,51,113.7,113.7C367.7,214.3,357.9,239.5,341.7,259.1z"/>
	</g>
</g>
<g>
	<g>
		<rect x="245.9" y="243.7" width="16.2" height="16.2"/>
	</g>
</g>
<g>
	<g>
		<rect x="278.4" y="243.7" width="16.2" height="16.2"/>
	</g>
</g>
<g>
	<g>
		<rect x="213.4" y="243.7" width="16.2" height="16.2"/>
	</g>
</g>
<g>
</g>
<g>
</g>
<g>
</g>
<g>
</g>
<g>
</g>
<g>
</g>
<g>
</g>
<g>
</g>
<g>
</g>
<g>
</g>
<g>
</g>
<g>
</g>
<g>
</g>
<g>
</g>
<g>
</g>
</svg>
