<svg width="1859" height="591" viewBox="0 0 1859 591" fill="none" xmlns="http://www.w3.org/2000/svg">
<path d="M-120 65.27C-120.003 63.9975 -119.52 62.772 -118.65 61.843C-117.781 60.914 -116.59 60.3514 -115.32 60.27L764.68 4.19C781.253 3.14311 797.741 7.27957 811.858 16.0257C825.974 24.7718 837.019 37.694 843.46 53L985.65 390.75C1007.2 441.93 971.32 498.97 915.85 501.69L-114.75 552.32C-115.427 552.354 -116.104 552.25 -116.74 552.014C-117.376 551.778 -117.957 551.415 -118.448 550.947C-118.939 550.479 -119.33 549.916 -119.597 549.293C-119.864 548.669 -120.001 547.998 -120 547.32V65.27Z" fill="#618916" fill-opacity="0.05"/>
<path d="M1783 188.15C1783 187.47 1782.86 186.797 1782.6 186.172C1782.33 185.547 1781.93 184.983 1781.44 184.515C1780.95 184.047 1780.36 183.685 1779.73 183.45C1779.09 183.215 1778.41 183.113 1777.73 183.15L1143.34 217.9C1131.99 218.522 1120.9 221.556 1110.81 226.801C1100.72 232.046 1091.87 239.38 1084.84 248.315C1077.81 257.251 1072.77 267.582 1070.04 278.62C1067.32 289.659 1066.98 301.15 1069.05 312.33L1104.54 504.12C1108.2 523.913 1119.2 541.596 1135.32 553.644C1151.45 565.692 1171.52 571.218 1191.54 569.12L1778.48 507.33C1779.71 507.201 1780.86 506.618 1781.68 505.694C1782.51 504.77 1782.97 503.571 1782.96 502.33L1783 188.15Z" fill="#618916" fill-opacity="0.05"/>
<path d="M1768.15 183.08H1139.5C1115.63 183.08 1092.74 192.562 1075.86 209.44C1058.98 226.319 1049.5 249.211 1049.5 273.08V434.08C1049.5 457.235 1058.43 479.499 1074.42 496.242C1090.42 512.986 1112.25 522.92 1135.38 523.98L1717.38 550.67C1738.16 551.622 1758.62 545.349 1775.29 532.917C1791.97 520.486 1803.82 502.663 1808.84 482.48L1855.53 294.77C1869.61 238 1826.66 183.08 1768.15 183.08Z" stroke="#618916" stroke-opacity="0.3"/>
<path d="M721.56 15.08H30.5C6.63052 15.08 -16.2613 24.5621 -33.1396 41.4404C-50.0179 58.3187 -59.5 81.2105 -59.5 105.08V500.77C-59.5 558.38 -6.12 601.16 50.11 588.61L861.46 407.43C920.29 394.29 949.83 328.16 920.34 275.57L800.06 61.07C792.241 47.1217 780.846 35.5086 767.049 27.4254C753.252 19.3423 737.551 15.081 721.56 15.08V15.08Z" stroke="#618916" stroke-opacity="0.3"/>
<path d="M952.72 30.14C961.043 30.14 967.79 23.3929 967.79 15.07C967.79 6.74707 961.043 0 952.72 0C944.397 0 937.65 6.74707 937.65 15.07C937.65 23.3929 944.397 30.14 952.72 30.14Z" fill="#618916" fill-opacity="0.3"/>
<path d="M1708.43 446.13C1716.29 449.679 1722.41 456.203 1725.46 464.267C1728.5 472.331 1728.22 481.274 1724.67 489.13C1721.12 496.986 1714.6 503.11 1706.53 506.156C1698.47 509.201 1689.53 508.919 1681.67 505.37L1695.05 475.75L1708.43 446.13Z" fill="#618916" fill-opacity="0.3"/>
</svg>
