<svg width="65" height="250" viewBox="0 0 65 250" fill="none" xmlns="http://www.w3.org/2000/svg">
<rect x="-5" width="10" height="10" fill="#618916" fill-opacity="0.25"/>
<rect x="15" width="10" height="10" fill="#618916" fill-opacity="0.25"/>
<rect x="35" width="10" height="10" fill="#618916" fill-opacity="0.25"/>
<rect x="55" width="10" height="10" fill="#618916" fill-opacity="0.25"/>
<rect x="-5" y="20" width="10" height="10" fill="#618916" fill-opacity="0.25"/>
<rect x="15" y="20" width="10" height="10" fill="#618916" fill-opacity="0.25"/>
<rect x="35" y="20" width="10" height="10" fill="#618916" fill-opacity="0.25"/>
<rect x="55" y="20" width="10" height="10" fill="#618916" fill-opacity="0.25"/>
<rect x="-5" y="40" width="10" height="10" fill="#618916" fill-opacity="0.25"/>
<rect x="15" y="40" width="10" height="10" fill="#618916" fill-opacity="0.25"/>
<rect x="35" y="40" width="10" height="10" fill="#618916" fill-opacity="0.25"/>
<rect x="55" y="40" width="10" height="10" fill="#618916" fill-opacity="0.25"/>
<rect x="-5" y="60" width="10" height="10" fill="#618916" fill-opacity="0.25"/>
<rect x="15" y="60" width="10" height="10" fill="#618916" fill-opacity="0.25"/>
<rect x="35" y="60" width="10" height="10" fill="#618916" fill-opacity="0.25"/>
<rect x="55" y="60" width="10" height="10" fill="#618916" fill-opacity="0.25"/>
<rect x="-5" y="80" width="10" height="10" fill="#618916" fill-opacity="0.25"/>
<rect x="15" y="80" width="10" height="10" fill="#618916" fill-opacity="0.25"/>
<rect x="35" y="80" width="10" height="10" fill="#618916" fill-opacity="0.25"/>
<rect x="55" y="80" width="10" height="10" fill="#618916" fill-opacity="0.25"/>
<rect x="-5" y="100" width="10" height="10" fill="#618916" fill-opacity="0.25"/>
<rect x="15" y="100" width="10" height="10" fill="#618916" fill-opacity="0.25"/>
<rect x="35" y="100" width="10" height="10" fill="#618916" fill-opacity="0.25"/>
<rect x="55" y="100" width="10" height="10" fill="#618916" fill-opacity="0.25"/>
<rect x="-5" y="120" width="10" height="10" fill="#618916" fill-opacity="0.25"/>
<rect x="15" y="120" width="10" height="10" fill="#618916" fill-opacity="0.25"/>
<rect x="35" y="120" width="10" height="10" fill="#618916" fill-opacity="0.25"/>
<rect x="55" y="120" width="10" height="10" fill="#618916" fill-opacity="0.25"/>
<rect x="-5" y="140" width="10" height="10" fill="#618916" fill-opacity="0.25"/>
<rect x="15" y="140" width="10" height="10" fill="#618916" fill-opacity="0.25"/>
<rect x="35" y="140" width="10" height="10" fill="#618916" fill-opacity="0.25"/>
<rect x="55" y="140" width="10" height="10" fill="#618916" fill-opacity="0.25"/>
<rect x="-5" y="160" width="10" height="10" fill="#618916" fill-opacity="0.25"/>
<rect x="15" y="160" width="10" height="10" fill="#618916" fill-opacity="0.25"/>
<rect x="35" y="160" width="10" height="10" fill="#618916" fill-opacity="0.25"/>
<rect x="55" y="160" width="10" height="10" fill="#618916" fill-opacity="0.25"/>
<rect x="-5" y="180" width="10" height="10" fill="#618916" fill-opacity="0.25"/>
<rect x="15" y="180" width="10" height="10" fill="#618916" fill-opacity="0.25"/>
<rect x="35" y="180" width="10" height="10" fill="#618916" fill-opacity="0.25"/>
<rect x="55" y="180" width="10" height="10" fill="#618916" fill-opacity="0.25"/>
<rect x="-5" y="200" width="10" height="10" fill="#618916" fill-opacity="0.25"/>
<rect x="15" y="200" width="10" height="10" fill="#618916" fill-opacity="0.25"/>
<rect x="35" y="200" width="10" height="10" fill="#618916" fill-opacity="0.25"/>
<rect x="55" y="200" width="10" height="10" fill="#618916" fill-opacity="0.25"/>
<rect x="-5" y="220" width="10" height="10" fill="#618916" fill-opacity="0.25"/>
<rect x="15" y="220" width="10" height="10" fill="#618916" fill-opacity="0.25"/>
<rect x="35" y="220" width="10" height="10" fill="#618916" fill-opacity="0.25"/>
<rect x="55" y="220" width="10" height="10" fill="#618916" fill-opacity="0.25"/>
<rect x="-5" y="240" width="10" height="10" fill="#618916" fill-opacity="0.25"/>
<rect x="15" y="240" width="10" height="10" fill="#618916" fill-opacity="0.25"/>
<rect x="35" y="240" width="10" height="10" fill="#618916" fill-opacity="0.25"/>
<rect x="55" y="240" width="10" height="10" fill="#618916" fill-opacity="0.25"/>
</svg>
