<svg width="136" height="286" viewBox="0 0 136 286" fill="none" xmlns="http://www.w3.org/2000/svg">
<circle cx="3.22465" cy="73.8979" r="2.5" transform="rotate(-20.7542 3.22465 73.8979)" fill="#FFD8CC"/>
<circle cx="12.0694" cy="97.2399" r="2.5" transform="rotate(-20.7542 12.0694 97.2399)" fill="#FFD8CC"/>
<circle cx="20.9141" cy="120.582" r="2.5" transform="rotate(-20.7542 20.9141 120.582)" fill="#FFD8CC"/>
<circle cx="29.7618" cy="143.924" r="2.5" transform="rotate(-20.7542 29.7618 143.924)" fill="#FFD8CC"/>
<ellipse cx="39.3857" cy="166.971" rx="3.33333" ry="2.5" transform="rotate(-20.7542 39.3857 166.971)" fill="#FFD8CC"/>
<circle cx="46.7715" cy="188.812" r="2.5" transform="rotate(-20.7542 46.7715 188.812)" fill="#FFD8CC"/>
<circle cx="55.6182" cy="212.154" r="2.5" transform="rotate(-20.7542 55.6182 212.154)" fill="#FFD8CC"/>
<circle cx="64.4629" cy="235.496" r="2.5" transform="rotate(-20.7542 64.4629 235.496)" fill="#FFD8CC"/>
<circle cx="73.3077" cy="258.839" r="2.5" transform="rotate(-20.7542 73.3077 258.839)" fill="#FFD8CC"/>
<circle cx="82.1524" cy="282.181" r="2.5" transform="rotate(-20.7542 82.1524 282.181)" fill="#FFD8CC"/>
<circle cx="26.5664" cy="65.0524" r="2.5" transform="rotate(-20.7542 26.5664 65.0524)" fill="#FFD8CC"/>
<circle cx="35.4112" cy="88.3944" r="2.5" transform="rotate(-20.7542 35.4112 88.3944)" fill="#FFD8CC"/>
<circle cx="44.2579" cy="111.736" r="2.5" transform="rotate(-20.7542 44.2579 111.736)" fill="#FFD8CC"/>
<circle cx="53.1036" cy="135.078" r="2.5" transform="rotate(-20.7542 53.1036 135.078)" fill="#FFD8CC"/>
<ellipse cx="62.7275" cy="158.125" rx="3.33333" ry="2.5" transform="rotate(-20.7542 62.7275 158.125)" fill="#FFD8CC"/>
<circle cx="70.1123" cy="179.967" r="2.5" transform="rotate(-20.7542 70.1123 179.967)" fill="#FFD8CC"/>
<circle cx="78.96" cy="203.309" r="2.5" transform="rotate(-20.7542 78.96 203.309)" fill="#FFD8CC"/>
<circle cx="87.8047" cy="226.651" r="2.5" transform="rotate(-20.7542 87.8047 226.651)" fill="#FFD8CC"/>
<circle cx="96.6495" cy="249.993" r="2.5" transform="rotate(-20.7542 96.6495 249.993)" fill="#FFD8CC"/>
<circle cx="105.495" cy="273.335" r="2.5" transform="rotate(-20.7542 105.495 273.335)" fill="#FFD8CC"/>
<circle cx="49.9082" cy="56.207" r="2.5" transform="rotate(-20.7542 49.9082 56.207)" fill="#FFD8CC"/>
<circle cx="58.7549" cy="79.549" r="2.5" transform="rotate(-20.7542 58.7549 79.549)" fill="#FFD8CC"/>
<circle cx="67.5996" cy="102.891" r="2.5" transform="rotate(-20.7542 67.5996 102.891)" fill="#FFD8CC"/>
<circle cx="76.4454" cy="126.233" r="2.5" transform="rotate(-20.7542 76.4454 126.233)" fill="#FFD8CC"/>
<ellipse cx="86.0693" cy="149.28" rx="3.33333" ry="2.5" transform="rotate(-20.7542 86.0693 149.28)" fill="#FFD8CC"/>
<circle cx="93.4561" cy="171.122" r="2.5" transform="rotate(-20.7542 93.4561 171.122)" fill="#FFD8CC"/>
<circle cx="102.301" cy="194.464" r="2.5" transform="rotate(-20.7542 102.301 194.464)" fill="#FFD8CC"/>
<circle cx="111.147" cy="217.806" r="2.5" transform="rotate(-20.7542 111.147 217.806)" fill="#FFD8CC"/>
<circle cx="119.991" cy="241.148" r="2.5" transform="rotate(-20.7542 119.991 241.148)" fill="#FFD8CC"/>
<circle cx="128.838" cy="264.49" r="2.5" transform="rotate(-20.7542 128.838 264.49)" fill="#FFD8CC"/>
<circle cx="73.251" cy="47.3615" r="2.5" transform="rotate(-20.7542 73.251 47.3615)" fill="#FFD8CC"/>
<circle cx="82.0967" cy="70.7036" r="2.5" transform="rotate(-20.7542 82.0967 70.7036)" fill="#FFD8CC"/>
<circle cx="90.9414" cy="94.0456" r="2.5" transform="rotate(-20.7542 90.9414 94.0456)" fill="#FFD8CC"/>
<circle cx="99.7862" cy="117.388" r="2.5" transform="rotate(-20.7542 99.7862 117.388)" fill="#FFD8CC"/>
<ellipse cx="109.411" cy="140.434" rx="3.33333" ry="2.5" transform="rotate(-20.7542 109.411 140.434)" fill="#FFD8CC"/>
<circle cx="116.798" cy="162.276" r="2.5" transform="rotate(-20.7542 116.798 162.276)" fill="#FFD8CC"/>
<circle cx="125.644" cy="185.618" r="2.5" transform="rotate(-20.7542 125.644 185.618)" fill="#FFD8CC"/>
<circle cx="134.488" cy="208.96" r="2.5" transform="rotate(-20.7542 134.488 208.96)" fill="#FFD8CC"/>
<ellipse cx="96.0093" cy="38.7376" rx="1.875" ry="2.5" transform="rotate(-20.7542 96.0093 38.7376)" fill="#FFD8CC"/>
<ellipse cx="104.854" cy="62.0795" rx="1.875" ry="2.5" transform="rotate(-20.7542 104.854 62.0795)" fill="#FFD8CC"/>
<ellipse cx="113.699" cy="85.4216" rx="1.875" ry="2.5" transform="rotate(-20.7542 113.699 85.4216)" fill="#FFD8CC"/>
<ellipse cx="122.544" cy="108.764" rx="1.875" ry="2.5" transform="rotate(-20.7542 122.544 108.764)" fill="#FFD8CC"/>
<circle cx="131.976" cy="131.884" r="2.5" transform="rotate(-20.7542 131.976 131.884)" fill="#FFD8CC"/>
<circle cx="118.139" cy="30.351" r="2.5" transform="rotate(-20.7542 118.139 30.351)" fill="#FFD8CC"/>
<circle cx="126.985" cy="53.693" r="2.5" transform="rotate(-20.7542 126.985 53.693)" fill="#FFD8CC"/>
<circle cx="135.83" cy="77.0351" r="2.5" transform="rotate(-20.7542 135.83 77.0351)" fill="#FFD8CC"/>
</svg>
