<svg width="1600" height="160" viewBox="0 0 1600 160" fill="none" xmlns="http://www.w3.org/2000/svg">
<path d="M-4.5 0.5H-4.44349H-4.32722H-4.20006H-4.06202H-3.91313H-3.75344H-3.58297H-3.40174H-3.20978H-3.00714H-2.79383H-2.56989H-2.33535H-2.09023H-1.83457H-1.56839H-1.29173H-1.00462H-0.707076H-0.399142H-0.080842H0.247793H0.586733H0.935948H1.29541H1.66509H2.04495H2.43497H2.83512H3.24536H3.66567H4.09602H4.53637H4.9867H5.44698H5.91718H6.39727H6.88721H7.38698H7.89655H8.41589H8.94497H9.48376H10.0322H10.5903H11.1581H11.7354H12.3223H12.9187H13.5246H14.14H14.7648H15.3991H16.0427H16.6957H17.358H18.0296H18.7104H19.4005H20.0998H20.8082H21.5258H22.2525H22.9883H23.7332H24.487H25.2499H26.0217H26.8025H27.5922H28.3907H29.1981H30.0143H30.8393H31.673H32.5155H33.3666H34.2265H35.0949H35.972H36.8576H37.7518H38.6545H39.5657H40.4854H41.4135H42.35H43.2948H44.248H45.2095H46.1792H47.1573H48.1435H49.1379H50.1405H51.1512H52.17H53.1969H54.2318H55.2748H56.3257H57.3845H58.4513H59.526H60.6085H61.6989H62.7971H63.903H65.0167H66.1381H67.2671H68.4039H69.5482H70.7001H71.8596H73.0267H74.2012H75.3832H76.5727H77.7695H78.9738H80.1854H81.4043H82.6306H83.8641H85.1048H86.3527H87.6078H88.8701H90.1394H91.4159H92.6994H93.9899H95.2874H96.5919H97.9034H99.2217H100.547H101.879H103.218H104.564H105.916H107.275H108.641H110.013H111.393H112.778H114.171H115.57H116.975H118.387H119.805H121.23H122.661H124.099H125.543H126.993H128.45H129.912H131.381H132.856H134.338H135.825H137.319H138.818H140.324H141.836H143.353H144.877H146.407H147.942H149.483H151.03H152.583H154.142H155.706H157.277H158.852H160.434H162.021H163.614H165.212H166.816H168.425H170.04H171.66H173.286H174.917H176.553H178.195H179.842H181.495H183.152H184.815H186.483H188.156H189.834H191.517H193.206H194.899H196.597H198.301H200.009H201.722H203.44H205.163H206.891H208.623H210.361H212.103H213.849H215.601H217.357H219.118H220.883H222.653H224.427H226.206H227.989H229.777H231.569H233.365H235.166H236.971H238.78H240.594H242.412H244.234H246.06H247.891H249.725H251.564H253.406H255.253H257.103H258.958H260.816H262.679H264.545H266.415H268.289H270.167H272.048H273.933H275.822H277.714H279.61H281.51H283.413H285.32H287.23H289.144H291.062H292.982H294.906H296.834H298.764H300.698H302.636H304.576H306.52H308.467H310.417H312.37H314.326H316.286H318.248H320.214H322.182H324.153H326.127H328.104H330.084H332.067H334.053H336.041H338.032H340.026H342.022H344.021H346.023H348.027H350.034H352.043H354.055H356.07H358.086H360.105H362.127H364.151H366.177H368.206H370.236H372.269H374.304H376.342H378.381H380.423H382.466H384.512H386.56H388.609H390.661H392.715H394.77H396.827H398.887H400.948H403.01H405.075H407.141H409.209H411.279H413.35H415.423H417.497H419.573H421.651H423.729H425.81H427.892H429.975H432.059H434.145H436.232H438.321H440.411H442.501H444.594H446.687H448.781H450.877H452.973H455.071H457.169H459.269H461.369H463.471H465.573H467.676H469.78H471.885H473.99H476.097H478.204H480.311H482.42H484.528H486.638H488.748H490.859H492.97H495.081H497.193H499.306H501.418H503.531H505.645H507.759H509.873H511.987H514.101H516.216H518.331H520.445H522.56H524.675H526.79H528.905H531.02H533.135H535.25H537.364H539.479H541.593H543.707H545.821H547.934H550.048H552.161H554.273H556.385H558.497H560.608H562.719H564.829H566.939H569.048H571.156H573.264H575.372H577.478H579.584H581.689H583.793H585.897H587.999H590.101H592.202H594.302H596.401H598.498H600.595H602.691H604.786H606.88H608.972H611.064H613.154H615.243H617.33H619.417H621.502H623.585H625.668H627.748H629.828H631.906H633.982H636.057H638.131H640.203H642.273H644.341H646.408H648.473H650.537H652.598H654.658H656.716H658.772H660.826H662.879H664.929H666.978H669.024H671.068H673.111H675.151H677.189H679.225H681.259H683.29H685.32H687.347H689.371H691.394H693.414H695.431H697.446H699.459H701.469H703.477H705.482H707.485H709.485H711.482H713.477H715.469H717.458H719.445H721.429H723.41H725.388H727.363H729.335H731.305H733.271H735.235H737.195H739.153H741.107H743.058H745.006H746.951H748.893H750.831H752.766H754.698H756.627H758.552H760.474H762.392H764.307H766.219H768.127H770.032H771.933H773.83H775.724H777.614H779.5H781.383H783.262H785.137H787.009H788.876H790.74H792.6H794.456H796.308H798.156H800H801.844H803.692H805.544H807.4H809.26H811.124H812.991H814.863H816.738H818.617H820.5H822.386H824.276H826.17H828.067H829.968H831.873H833.781H835.693H837.608H839.526H841.448H843.373H845.302H847.234H849.169H851.107H853.049H854.994H856.942H858.893H860.847H862.805H864.765H866.729H868.695H870.665H872.637H874.612H876.59H878.571H880.555H882.542H884.531H886.523H888.518H890.515H892.515H894.518H896.523H898.531H900.541H902.554H904.569H906.586H908.606H910.629H912.653H914.68H916.71H918.741H920.775H922.811H924.849H926.889H928.932H930.976H933.022H935.071H937.121H939.174H941.228H943.284H945.342H947.402H949.463H951.527H953.592H955.659H957.727H959.797H961.869H963.943H966.018H968.094H970.172H972.252H974.332H976.415H978.498H980.583H982.67H984.757H986.846H988.936H991.028H993.12H995.214H997.309H999.405H1001.5H1003.6H1005.7H1007.8H1009.9H1012H1014.1H1016.21H1018.31H1020.42H1022.52H1024.63H1026.74H1028.84H1030.95H1033.06H1035.17H1037.28H1039.39H1041.5H1043.61H1045.73H1047.84H1049.95H1052.07H1054.18H1056.29H1058.41H1060.52H1062.64H1064.75H1066.87H1068.98H1071.09H1073.21H1075.32H1077.44H1079.55H1081.67H1083.78H1085.9H1088.01H1090.13H1092.24H1094.36H1096.47H1098.58H1100.69H1102.81H1104.92H1107.03H1109.14H1111.25H1113.36H1115.47H1117.58H1119.69H1121.8H1123.9H1126.01H1128.12H1130.22H1132.32H1134.43H1136.53H1138.63H1140.73H1142.83H1144.93H1147.03H1149.12H1151.22H1153.31H1155.41H1157.5H1159.59H1161.68H1163.77H1165.85H1167.94H1170.03H1172.11H1174.19H1176.27H1178.35H1180.43H1182.5H1184.58H1186.65H1188.72H1190.79H1192.86H1194.93H1196.99H1199.05H1201.11H1203.17H1205.23H1207.29H1209.34H1211.39H1213.44H1215.49H1217.53H1219.58H1221.62H1223.66H1225.7H1227.73H1229.76H1231.79H1233.82H1235.85H1237.87H1239.89H1241.91H1243.93H1245.94H1247.96H1249.97H1251.97H1253.98H1255.98H1257.98H1259.97H1261.97H1263.96H1265.95H1267.93H1269.92H1271.9H1273.87H1275.85H1277.82H1279.79H1281.75H1283.71H1285.67H1287.63H1289.58H1291.53H1293.48H1295.42H1297.36H1299.3H1301.24H1303.17H1305.09H1307.02H1308.94H1310.86H1312.77H1314.68H1316.59H1318.49H1320.39H1322.29H1324.18H1326.07H1327.95H1329.83H1331.71H1333.58H1335.45H1337.32H1339.18H1341.04H1342.9H1344.75H1346.59H1348.44H1350.27H1352.11H1353.94H1355.77H1357.59H1359.41H1361.22H1363.03H1364.83H1366.63H1368.43H1370.22H1372.01H1373.79H1375.57H1377.35H1379.12H1380.88H1382.64H1384.4H1386.15H1387.9H1389.64H1391.38H1393.11H1394.84H1396.56H1398.28H1399.99H1401.7H1403.4H1405.1H1406.79H1408.48H1410.17H1411.84H1413.52H1415.19H1416.85H1418.51H1420.16H1421.8H1423.45H1425.08H1426.71H1428.34H1429.96H1431.57H1433.18H1434.79H1436.39H1437.98H1439.57H1441.15H1442.72H1444.29H1445.86H1447.42H1448.97H1450.52H1452.06H1453.59H1455.12H1456.65H1458.16H1459.68H1461.18H1462.68H1464.17H1465.66H1467.14H1468.62H1470.09H1471.55H1473.01H1474.46H1475.9H1477.34H1478.77H1480.19H1481.61H1483.02H1484.43H1485.83H1487.22H1488.61H1489.99H1491.36H1492.72H1494.08H1495.44H1496.78H1498.12H1499.45H1500.78H1502.1H1503.41H1504.71H1506.01H1507.3H1508.58H1509.86H1511.13H1512.39H1513.65H1514.9H1516.14H1517.37H1518.6H1519.81H1521.03H1522.23H1523.43H1524.62H1525.8H1526.97H1528.14H1529.3H1530.45H1531.6H1532.73H1533.86H1534.98H1536.1H1537.2H1538.3H1539.39H1540.47H1541.55H1542.62H1543.67H1544.73H1545.77H1546.8H1547.83H1548.85H1549.86H1550.86H1551.86H1552.84H1553.82H1554.79H1555.75H1556.71H1557.65H1558.59H1559.51H1560.43H1561.35H1562.25H1563.14H1564.03H1564.91H1565.77H1566.63H1567.48H1568.33H1569.16H1569.99H1570.8H1571.61H1572.41H1573.2H1573.98H1574.75H1575.51H1576.27H1577.01H1577.75H1578.47H1579.19H1579.9H1580.6H1581.29H1581.97H1582.64H1583.3H1583.96H1584.6H1585.24H1585.86H1586.48H1587.08H1587.68H1588.26H1588.84H1589.41H1589.97H1590.52H1591.06H1591.58H1592.1H1592.61H1593.11H1593.6H1594.08H1594.55H1595.01H1595.46H1595.9H1596.33H1596.75H1597.16H1597.57H1597.96H1598.33H1598.7H1599.06H1599.41H1599.75H1600.08H1600.4H1600.71H1601H1601.29H1601.57H1601.83H1602.09H1602.34H1602.57H1602.79H1603.01H1603.21H1603.4H1603.58H1603.75H1603.91H1604.06H1604.2H1604.33H1604.44H1604.5V159.49L1603.59 159.471L1599.42 159.388C1595.75 159.315 1590.33 159.207 1583.32 159.07C1569.29 158.797 1548.89 158.406 1523.44 157.938C1472.53 157 1401.38 155.75 1320.41 154.5C1158.46 152 957.202 149.5 800 149.5C642.798 149.5 441.545 152 279.594 154.5C198.618 155.75 127.467 157 76.5601 157.938C51.1066 158.406 30.7141 158.797 16.6849 159.07C9.67036 159.207 4.24661 159.315 0.57649 159.388C-1.25857 159.424 -2.65522 159.452 -3.59312 159.471L-4.5 159.49V0.5Z" stroke="#618916" stroke-opacity="0.3"/>
</svg>
