<svg width="1600" height="748" viewBox="0 0 1600 748" fill="none" xmlns="http://www.w3.org/2000/svg">
<path d="M-24.5039 415.936C-29.2828 378.878 -25.5126 348.2 -14.7173 322.74C-3.92281 297.281 13.9103 277.004 37.3139 260.767C84.1426 228.279 153.242 211.988 232.735 202.79C294.676 195.623 362.867 192.767 431.667 189.886C451.151 189.07 470.683 188.252 490.136 187.333C578.263 183.172 664.76 176.947 737.617 159.486C907.167 118.852 1129.03 79.1039 1308.51 49.514C1398.25 34.7194 1477.39 22.4645 1534.09 13.9084C1562.45 9.63035 1585.19 6.27697 1600.85 3.99312C1608.68 2.8512 1614.73 1.97666 1618.83 1.38761C1620.88 1.09309 1622.44 0.869937 1623.49 0.720423L1624.5 0.576116V502.461L1624.49 502.498C1624.49 502.548 1624.47 502.624 1624.46 502.724C1624.44 502.796 1624.43 502.881 1624.41 502.979C1624.38 503.153 1624.34 503.367 1624.3 503.62C1624.15 504.411 1623.91 505.583 1623.57 507.102C1622.88 510.14 1621.76 514.565 1620.01 520.104C1616.51 531.182 1610.51 546.715 1600.52 564.513C1580.54 600.107 1544.6 644.771 1480.75 681.003C1353.05 753.467 1113.59 792.254 666.645 657.021C601.66 637.359 528.098 629.259 453.802 623.959C430.866 622.323 407.863 620.954 385.018 619.594C333.84 616.548 283.46 613.549 236.432 607.704C168.415 599.25 107.501 584.85 61.4319 555.794C15.3934 526.757 -15.847 483.067 -24.5039 415.936Z" stroke="#FFD8CC"/>
</svg>
