<svg xmlns="http://www.w3.org/2000/svg" viewBox="0 0 406.33 419.78"><defs><style>.cls-1{fill:#ebebeb;}.cls-2{fill:#ff725e;}.cls-3{fill:#263238;}.cls-4{fill:#ffbea9;}.cls-5{fill:#e4977c;}.cls-6{fill:#455a64;}.cls-7{fill:#e0e0e0;}.cls-8{opacity:0.6;}.cls-9{fill:#fff;}</style></defs><title>emptyshopping</title><g id="Background_Complete" data-name="Background Complete"><polygon class="cls-1" points="243.74 85.86 251.59 90.16 243.74 94.45 239.44 102.31 235.15 94.45 227.29 90.16 235.15 85.86 239.44 78.01 243.74 85.86"/><polygon class="cls-1" points="219.78 75.02 222.45 76.48 219.78 77.95 218.31 80.62 216.85 77.95 214.17 76.48 216.85 75.02 218.31 72.35 219.78 75.02"/><polygon class="cls-1" points="193.67 144.85 196.35 146.31 193.67 147.77 192.21 150.45 190.75 147.77 188.07 146.31 190.75 144.85 192.21 142.17 193.67 144.85"/><polygon class="cls-1" points="346.56 80.8 351.39 83.44 346.56 86.08 343.92 90.91 341.28 86.08 336.46 83.44 341.28 80.8 343.92 75.97 346.56 80.8"/><polygon class="cls-1" points="381.74 151.5 386.1 154.85 380.92 156.72 377.57 161.08 375.71 155.9 371.34 152.55 376.52 150.69 379.88 146.32 381.74 151.5"/><polygon class="cls-1" points="308.08 109.08 311.45 110.92 308.08 112.77 306.24 116.14 304.4 112.77 301.02 110.92 304.4 109.08 306.24 105.7 308.08 109.08"/></g><g id="Plant"><path class="cls-2" d="M421,426.81a9.68,9.68,0,0,1,5,5.67,17.05,17.05,0,0,1,.67,7.68c-.57,5-3.4,10-6.45,14-4.2-3.66-5.16-10.05-5.45-13.32-.45-5.18,1.87-14.8,6.23-14" transform="translate(-47.52 -58.92)"/><path class="cls-2" d="M425.09,462.39a8.26,8.26,0,0,1,2.66-7.84,11,11,0,0,1,8.07-2.52,4.62,4.62,0,0,1,3.55,1.59,3.55,3.55,0,0,1,.05,3.58,7.24,7.24,0,0,1-2.64,2.6c-3.64,2.28-7.58,3.82-11.69,2.59" transform="translate(-47.52 -58.92)"/><path class="cls-3" d="M419.71,477.67a5,5,0,0,1,.15-1c.13-.72.3-1.65.5-2.77a29,29,0,0,1,2.86-8.84,17.76,17.76,0,0,1,6.35-6.75,12,12,0,0,1,2.58-1.14,6.28,6.28,0,0,1,.75-.19.74.74,0,0,1,.26,0,18.89,18.89,0,0,0-3.46,1.59,18.28,18.28,0,0,0-6.16,6.7,31,31,0,0,0-2.92,8.72c-.26,1.16-.47,2.1-.63,2.75A6.42,6.42,0,0,1,419.71,477.67Z" transform="translate(-47.52 -58.92)"/><path class="cls-3" d="M419.86,434.3a1.72,1.72,0,0,1,.06.44c0,.34,0,.76.07,1.29.06,1.11.13,2.73.19,4.73.13,4,.23,9.51.21,15.61s-.18,11.62-.34,15.61c-.09,2-.17,3.61-.23,4.73,0,.52-.07,1-.09,1.28a1.88,1.88,0,0,1-.06.45,2.28,2.28,0,0,1,0-.45c0-.34,0-.76,0-1.29,0-1.16.07-2.77.12-4.73.1-4,.21-9.51.23-15.6s0-11.61-.1-15.61c0-2-.05-3.56-.07-4.73,0-.52,0-.95,0-1.28A2.19,2.19,0,0,1,419.86,434.3Z" transform="translate(-47.52 -58.92)"/><path class="cls-2" d="M417.83,465.42A19.29,19.29,0,0,0,407.3,451.3c-1.4-.67-3.23-1.11-4.39-.07s-.89,2.92-.33,4.38a16.48,16.48,0,0,0,15.15,10.22" transform="translate(-47.52 -58.92)"/><path class="cls-3" d="M408,456a5.42,5.42,0,0,1,.89.39,10.23,10.23,0,0,1,1,.53c.38.24.83.47,1.28.81a15.57,15.57,0,0,1,1.47,1.1c.52.41,1,.9,1.56,1.42a21.47,21.47,0,0,1,3,3.81,19.61,19.61,0,0,1,2.45,6.46,16.77,16.77,0,0,1,.25,1.82c.07.56,0,1.07.07,1.51a7.85,7.85,0,0,1,0,1.14,5.44,5.44,0,0,1-.1,1c-.09,0,.06-1.39-.19-3.59a16.55,16.55,0,0,0-.29-1.79,17.57,17.57,0,0,0-.52-2,21.75,21.75,0,0,0-1.94-4.33,23,23,0,0,0-2.89-3.76,19.6,19.6,0,0,0-1.52-1.42A17.68,17.68,0,0,0,411,458C409.21,456.68,407.94,456.1,408,456Z" transform="translate(-47.52 -58.92)"/></g><g id="Character"><path class="cls-2" d="M186.6,127.94c1.22,0,14.81,3.26,18.63,10s5.46,31.39,5.46,31.39,1.1,17.34-1.27,25.66-10.16,49.22-13,57.52c-3.69,10.65-8.93,28.22-8.93,28.22L142.72,249Z" transform="translate(-47.52 -58.92)"/><path class="cls-3" d="M200.82,89.5c-1.94,4.18-1.31,9.08-.18,13.54s2.76,8.88,2.73,13.48c-.05,6.77-1.76,16-15.46,11.64-8.35-2.66-.67,22.11-5.18,29.61a12.58,12.58,0,0,1-3.23,4c-3.37,2.4-8,1-11.86-.46-1.24-.47-2.64-1.13-2.92-2.42a4,4,0,0,1,.24-2L185.42,89" transform="translate(-47.52 -58.92)"/><path class="cls-4" d="M177.53,142.36c7.86-1.85,10.27-5.76,10.37-12.67l.12-8.79s8.69-.45,10.72-13.4A128.89,128.89,0,0,0,200.06,82c-.51-7.76-8.58-21.46-16.31-20.62L162.5,71.74a4.54,4.54,0,0,0-4.06,4.62h0l1.65,50.21" transform="translate(-47.52 -58.92)"/><path class="cls-3" d="M195.09,91a1.67,1.67,0,0,1-1.6,1.68,1.59,1.59,0,0,1-1.72-1.49,1.67,1.67,0,0,1,1.6-1.68A1.6,1.6,0,0,1,195.09,91Z" transform="translate(-47.52 -58.92)"/><path class="cls-3" d="M197.77,88c-.15.28-1.61-.47-3.36-.09s-2.8,1.64-3,1.44,0-.56.44-1.13a4.23,4.23,0,0,1,2.37-1.44,4.15,4.15,0,0,1,2.74.36C197.56,87.43,197.84,87.82,197.77,88Z" transform="translate(-47.52 -58.92)"/><path class="cls-3" d="M177.93,90.82a1.66,1.66,0,0,1-1.59,1.68,1.6,1.6,0,0,1-1.72-1.5,1.67,1.67,0,0,1,1.6-1.68A1.59,1.59,0,0,1,177.93,90.82Z" transform="translate(-47.52 -58.92)"/><path class="cls-3" d="M180.07,89.79c-.28.17-1.31-1.23-3.17-1.76s-3.52,0-3.65-.26c-.07-.14.27-.5,1-.78a4.81,4.81,0,0,1,3-.09,4.68,4.68,0,0,1,2.44,1.7C180.13,89.23,180.2,89.71,180.07,89.79Z" transform="translate(-47.52 -58.92)"/><path class="cls-3" d="M186.73,101.13a11.38,11.38,0,0,1,2.91-.53c.45,0,.88-.14,1-.45a2.34,2.34,0,0,0-.31-1.36c-.43-1.1-.88-2.26-1.36-3.47-1.88-4.94-3.25-9-3.05-9.08s1.89,3.87,3.78,8.82l1.3,3.49a2.67,2.67,0,0,1,.24,1.79,1.15,1.15,0,0,1-.75.67,3.39,3.39,0,0,1-.77.11A11.88,11.88,0,0,1,186.73,101.13Z" transform="translate(-47.52 -58.92)"/><path class="cls-5" d="M188,121a32.93,32.93,0,0,1-17.35-4.59s4.34,9.25,17.3,8Z" transform="translate(-47.52 -58.92)"/><path class="cls-5" d="M186.45,105.47A4.79,4.79,0,0,0,183,103.2a2.06,2.06,0,0,0-2,1.12,3.23,3.23,0,0,0,.29,3A2.72,2.72,0,0,0,184,108.6a4.59,4.59,0,0,0,2.23-1.45,1.63,1.63,0,0,0,.46-.65,1.13,1.13,0,0,0-.15-.93" transform="translate(-47.52 -58.92)"/><path class="cls-3" d="M181.48,102.37c.29,0,.3,1.93,2,3.3s3.73,1.15,3.74,1.42-.46.38-1.33.41a4.84,4.84,0,0,1-3.12-1.08,4.21,4.21,0,0,1-1.52-2.77C181.13,102.84,181.35,102.36,181.48,102.37Z" transform="translate(-47.52 -58.92)"/><path class="cls-3" d="M181.63,81.54c-.22.47-2,.07-4.09.11s-3.85.45-4.09,0c-.1-.22.24-.65,1-1a7.12,7.12,0,0,1,6.22-.07C181.38,80.9,181.73,81.32,181.63,81.54Z" transform="translate(-47.52 -58.92)"/><path class="cls-3" d="M198.32,84c-.4.4-1.92,0-3.76,0s-3.4.26-3.76-.16c-.15-.21.09-.61.77-1a6.57,6.57,0,0,1,6.06.16C198.28,83.41,198.49,83.83,198.32,84Z" transform="translate(-47.52 -58.92)"/><path class="cls-3" d="M130.78,131.68c2.82-4.57,11.94-15.51,15.17-23,2.3-5.38,4-24.24,8.94-33.95s10.69-13.64,16.37-15.16a13,13,0,0,1,12.49,2.83c2.56,2.29,3.43,9,3.43,9s-13.68,3.05-18.29,10.85c-5.29,9-6.58,13.47-6.58,13.47l-1.71,4.91s1.6,9.49,2.19,14.18-.35,9-4.21,11l-7.77,5.49s4.22,45.37,3.75,45.73c-1.16.88-10.88-1.08-19.67-3.09-1.71-.4-2.64-16.41-2.64-16.41l-2.57,15-6.61-1.5S125,141,130.78,131.68Z" transform="translate(-47.52 -58.92)"/><path class="cls-3" d="M186.93,71.38a11.12,11.12,0,0,1,11.36,8c1.31,4,2.3,15.54,2.3,15.54s1.15-9.17.73-14.4-3-11.85-7-15.51-7.19-5.24-14.16-4.82a12.35,12.35,0,0,1,4.56,3.91C185.56,65.44,185.78,66.41,186.93,71.38Z" transform="translate(-47.52 -58.92)"/><path class="cls-4" d="M162.41,96.33A3.94,3.94,0,0,0,156.66,93c-1.36.79-2.41,2.38-2.28,5.42.33,8.11,8.41,6.1,8.41,5.87S162.57,99.68,162.41,96.33Z" transform="translate(-47.52 -58.92)"/><path class="cls-5" d="M160.19,101.3s-.14.1-.37.22a1.41,1.41,0,0,1-1.06.07c-.87-.28-1.65-1.61-1.75-3.07a4.64,4.64,0,0,1,.32-2,1.62,1.62,0,0,1,1-1.13.71.71,0,0,1,.85.35c.12.22.08.39.12.4s.17-.14.09-.48a.92.92,0,0,0-.34-.49,1,1,0,0,0-.79-.17,2,2,0,0,0-1.42,1.31,4.74,4.74,0,0,0-.4,2.28c.12,1.64,1,3.13,2.2,3.42a1.49,1.49,0,0,0,1.29-.27C160.18,101.49,160.22,101.31,160.19,101.3Z" transform="translate(-47.52 -58.92)"/><path class="cls-3" d="M158.17,70.06a58.29,58.29,0,0,0-9.95,23.61c-1,5.33-1.28,11.09-4.51,15.44-1.7,2.29-4.13,4-5.38,6.6-1.36,2.78-1.16,6.18-2.76,8.84-1.74,2.89-5.2,4.26-7.46,6.76-4.27,4.72-3.32,12-5.06,18.11a20.42,20.42,0,0,1-6.52,10c-1.06.89-2.36,2.05-2,3.38a3.15,3.15,0,0,0,1.78,1.67c2.45,1.26,4.71,6,7.42,6.56.56-14.58,7.64-32.09,15.31-44.5,4.38-7.09,9.22-14.17,10.95-22.31,1.13-5.37.86-10.92,1.46-16.38s2.27-11.12,6.39-14.74" transform="translate(-47.52 -58.92)"/><path class="cls-3" d="M155.74,106.48c-.1.12-.84-.23-1.82-1.31a10.45,10.45,0,0,1-1.81-10.06,14.42,14.42,0,0,1,2.49-4.3,34.52,34.52,0,0,1,3.71-3.75,55.38,55.38,0,0,1,4.35-3.5,56.52,56.52,0,0,1,9.26-5.5c3-1.42,5.78-2.33,7.93-3.37a17.84,17.84,0,0,0,4.67-3c1-.89,1.43-1.5,1.6-1.41s0,.87-.84,2.08a14.13,14.13,0,0,1-4.57,4c-2.18,1.31-4.93,2.43-7.73,3.89a70.28,70.28,0,0,0-8.79,5.45c-1.48,1.08-2.88,2.2-4.2,3.32a36.24,36.24,0,0,0-3.55,3.38,13.13,13.13,0,0,0-2.32,3.52,9.24,9.24,0,0,0-.71,3.51,11.18,11.18,0,0,0,1.34,5.2C155.39,105.73,155.88,106.33,155.74,106.48Z" transform="translate(-47.52 -58.92)"/><path class="cls-6" d="M159,106.84a1.56,1.56,0,0,1-.4-.19,6.69,6.69,0,0,1-1.07-.69,9.93,9.93,0,0,1-2.85-3.66,10.19,10.19,0,0,1-.7-6.84,13.87,13.87,0,0,1,4.86-6.86,70.78,70.78,0,0,1,6.91-4.83c2.2-1.37,4.22-2.53,5.94-3.46s3.13-1.63,4.12-2.1c.5-.23.88-.41,1.15-.52a1.81,1.81,0,0,1,.42-.15,11.27,11.27,0,0,1-1.48.85c-.95.52-2.34,1.27-4,2.24s-3.69,2.16-5.86,3.55A77.19,77.19,0,0,0,159.22,89a13.46,13.46,0,0,0-4.73,6.6,9.87,9.87,0,0,0,.56,6.55,10.46,10.46,0,0,0,2.65,3.66C158.53,106.51,159.07,106.79,159,106.84Z" transform="translate(-47.52 -58.92)"/><path class="cls-6" d="M175.14,59a5.42,5.42,0,0,1,2.66.18,14.23,14.23,0,0,1,5.7,3,10.69,10.69,0,0,1,3.31,5.52,9.23,9.23,0,0,1,.24,1.94,1.8,1.8,0,0,1-.07.72c-.09,0-.08-1-.53-2.57a11.19,11.19,0,0,0-3.29-5.22,15.91,15.91,0,0,0-5.46-3A25.93,25.93,0,0,0,175.14,59Z" transform="translate(-47.52 -58.92)"/><path class="cls-7" d="M154.59,103.23s-.37.38-.94,1.14a8.18,8.18,0,0,0-1.49,3.64,7.78,7.78,0,0,0,1.33,5.55,6.64,6.64,0,0,0,6.06,3,5.41,5.41,0,0,0,3.22-1.54,6.2,6.2,0,0,0,1.53-3,9.24,9.24,0,0,0-.5-5.74,5.34,5.34,0,0,0-2.76-2.68,9.87,9.87,0,0,0-1.42-.37,1.3,1.3,0,0,1,.39,0,3.86,3.86,0,0,1,1.1.21,5.43,5.43,0,0,1,3,2.71,9.44,9.44,0,0,1,.64,6,6.64,6.64,0,0,1-1.64,3.24,5.73,5.73,0,0,1-3.51,1.7,6.47,6.47,0,0,1-3.83-.75,7.78,7.78,0,0,1-2.7-2.44,8.13,8.13,0,0,1-1.3-5.88,8,8,0,0,1,1.7-3.7,6.7,6.7,0,0,1,.78-.8A1.19,1.19,0,0,1,154.59,103.23Z" transform="translate(-47.52 -58.92)"/><polygon class="cls-4" points="75.29 396.82 80.98 372.15 60.96 368.8 60.96 386.83 66.53 395.04 75.29 396.82"/><path class="cls-2" d="M124.66,454.55l-.68,1.07s13.47,18.77,11.48,22.32l-35.8-23,8.15-11.6A24.38,24.38,0,0,0,124.66,454.55Z" transform="translate(-47.52 -58.92)"/><g class="cls-8"><path class="cls-9" d="M109,449.45a1.75,1.75,0,0,0-2.09,1,1.67,1.67,0,0,0,1,2.07,1.84,1.84,0,0,0,2.21-1.09,1.74,1.74,0,0,0-1.27-2" transform="translate(-47.52 -58.92)"/></g><g class="cls-8"><path class="cls-9" d="M99.66,454.91l2-2.79,33.59,23.1s1.15,1.72.25,2.72Z" transform="translate(-47.52 -58.92)"/></g><path class="cls-3" d="M124,455.8c-.11.17-1-.31-2.26-.31s-2.15.45-2.27.28.8-1,2.27-1S124.19,455.66,124,455.8Z" transform="translate(-47.52 -58.92)"/><path class="cls-3" d="M126.8,459.77c-.07.19-1,0-2.09.36s-1.74,1-1.91.91.36-1.18,1.69-1.6S126.9,459.6,126.8,459.77Z" transform="translate(-47.52 -58.92)"/><path class="cls-3" d="M126,465.63c-.18-.06.14-1.09,1.2-1.76s2.13-.52,2.11-.33-.86.38-1.72.94S126.23,465.73,126,465.63Z" transform="translate(-47.52 -58.92)"/><polygon class="cls-4" points="26.13 240.79 44.08 243.2 37.17 262.99 17.93 256.38 16.84 249.06 26.13 240.79"/><path class="cls-2" d="M67.34,316.63l-1.09-.45S51.07,331.33,47.52,330l15.74-36.26,11.85,5.74A22.56,22.56,0,0,0,67.34,316.63Z" transform="translate(-47.52 -58.92)"/><g class="cls-8"><path class="cls-9" d="M69.66,301.51a1.63,1.63,0,0,0-1.25-1.76A1.56,1.56,0,0,0,66.66,301,1.71,1.71,0,0,0,68,302.83c.79.05,1.75-.68,1.68-1.47" transform="translate(-47.52 -58.92)"/></g><g class="cls-8"><path class="cls-9" d="M63.26,293.78l2.85,1.38L50,329.4s-1.41,1.31-2.46.64Z" transform="translate(-47.52 -58.92)"/></g><path class="cls-3" d="M66.1,316.26c-.18-.08.13-1-.06-2.12s-.74-1.91-.6-2,1,.58,1.26,1.93S66.24,316.37,66.1,316.26Z" transform="translate(-47.52 -58.92)"/><path class="cls-3" d="M62.87,319.38c-.18,0-.15-.93-.64-1.86s-1.2-1.44-1.12-1.62,1.13.15,1.72,1.32S63,319.45,62.87,319.38Z" transform="translate(-47.52 -58.92)"/><path class="cls-3" d="M57.39,319.56c0-.18,1,0,1.79.84s.8,1.87.62,1.88-.48-.73-1.12-1.44S57.33,319.75,57.39,319.56Z" transform="translate(-47.52 -58.92)"/><path class="cls-3" d="M172.28,280.73c-1.59.78-21.64,78.07-27.95,81.26l-12.78,62.84a5.42,5.42,0,0,1,.88,4.07c-.29,2.76-1.46,3.2-1.46,3.2s-18.45,2.33-25.86-3.05c0,0,.87-5.52,1.31-6s2.18-50.28,6.68-61.9,10.46-48.39,9.88-55.8-2.61-24.7-2.18-30.22a52,52,0,0,1,2.33-11.05Z" transform="translate(-47.52 -58.92)"/><path class="cls-3" d="M180.24,283.85s-6.8,46.6-12.67,54.18-13.85,7.78-15.75,8.1-71-25.22-71-25.22S79.74,302.1,82,299.29c0,0,6.17.28,7.58,2.25l35.93,5,13.19-40.14Z" transform="translate(-47.52 -58.92)"/><path class="cls-6" d="M168.45,283.77a5.24,5.24,0,0,1-.15.8c-.13.57-.31,1.33-.53,2.28-.49,2-1.18,4.87-2,8.37l-6.88,27.54c-2.67,10.76-5.45,20.45-8.19,27.2-1.34,3.38-2.58,6.06-3.5,7.87-.45.91-.85,1.6-1.1,2.07a4.11,4.11,0,0,1-.42.7,5.66,5.66,0,0,1,.33-.75c.22-.49.59-1.19,1-2.11.87-1.84,2-4.53,3.35-7.91,2.64-6.77,5.36-16.43,8-27.2l7-27.5c.91-3.48,1.66-6.31,2.19-8.33.26-.94.46-1.69.62-2.25A4.44,4.44,0,0,1,168.45,283.77Z" transform="translate(-47.52 -58.92)"/><path class="cls-6" d="M120.92,273.92s0,.25-.07.71a18.06,18.06,0,0,0-.06,2c0,1.76.19,4.29.46,7.43s.65,6.87,1,11,1,8.69,1,13.51c.12,9.69-2.07,18.23-3.39,24.35-.66,3-1.21,5.5-1.59,7.27l-.43,2a3.68,3.68,0,0,1-.19.69,3.31,3.31,0,0,1,.08-.7c.09-.51.2-1.18.34-2,.3-1.74.79-4.24,1.43-7.32,1.23-6.15,3.35-14.66,3.23-24.26,0-4.79-.69-9.32-1-13.47s-.66-7.86-.93-11-.34-5.69-.29-7.45a13.41,13.41,0,0,1,.15-2A2.69,2.69,0,0,1,120.92,273.92Z" transform="translate(-47.52 -58.92)"/><path class="cls-6" d="M88.85,301.26c.07,0-.33,1.19-.87,3.09a55.78,55.78,0,0,0-2.19,15.2,31.91,31.91,0,0,1,0,3.2,3.11,3.11,0,0,1-.16-.85c-.07-.55-.13-1.36-.17-2.35a43.6,43.6,0,0,1,2.21-15.31c.32-.94.6-1.7.83-2.2S88.81,301.25,88.85,301.26Z" transform="translate(-47.52 -58.92)"/><path class="cls-6" d="M70.22,318.47c0,.15-.09.26-.2.26s-.19-.11-.19-.26.09-.26.19-.26A.24.24,0,0,1,70.22,318.47Z" transform="translate(-47.52 -58.92)"/><path class="cls-6" d="M106.88,422.11a34.91,34.91,0,0,1,3.64.52c2.24.35,5.35.8,8.79,1.15s6.57.53,8.84.63a33.75,33.75,0,0,1,3.67.22,3.45,3.45,0,0,1-1,.1c-.64,0-1.56,0-2.69,0-2.28,0-5.43-.14-8.88-.49s-6.57-.85-8.8-1.3c-1.12-.22-2-.42-2.63-.58A3.41,3.41,0,0,1,106.88,422.11Z" transform="translate(-47.52 -58.92)"/><path class="cls-2" d="M178.62,287.74c.22-.14,13.13,0,13.13,0s9.66-47.08,10.81-61.51S179,232.92,179,232.92Z" transform="translate(-47.52 -58.92)"/><path class="cls-4" d="M198.08,272.09c.43,2.18,1.11,4.13.83,6.34a5.09,5.09,0,0,1-.5,1.84,5.74,5.74,0,0,1-1.6,1.66l-4.38,3.5c-.47.37-1.14.76-1.61.38a1.28,1.28,0,0,1-.27-1.21,9.66,9.66,0,0,1,1.24-3.49l1.56-6.55-1.6-3.37,6.33.9" transform="translate(-47.52 -58.92)"/><path class="cls-2" d="M161.19,123.66s12.54,0,19.91,16.39c0,0,22.22,38.74,22.73,55.28,0,0-.26,24.54-4.39,39s-16,52.8-16,52.8-37.19-3.2-44.68-8.63-24-4.65-24-4.65,10.08-30.74,22.48-49.33,7.49-51.67,7.49-51.67S141.21,123.81,161.19,123.66Z" transform="translate(-47.52 -58.92)"/><path class="cls-3" d="M179,286.7a3.38,3.38,0,0,1,.6,0c.39,0,1,0,1.74,0,1.53,0,3.76-.09,6.56-.36l-.13.1c2.59-9.08,6.85-24.59,10.45-42.45a269.77,269.77,0,0,0,5.2-36.83c.27-4.75.27-8.61.18-11.27-.06-1.3-.11-2.32-.14-3.06,0-.33,0-.59,0-.8a1.1,1.1,0,0,1,0-.27.84.84,0,0,1,0,.27c0,.2,0,.47.07.79q.09,1.11.24,3.06c.15,2.67.21,6.53,0,11.3a253.91,253.91,0,0,1-5.06,36.91c-3.61,17.89-8,33.38-10.68,42.43l0,.1H188a58,58,0,0,1-6.59.23c-.77,0-1.35-.06-1.75-.11A2.21,2.21,0,0,1,179,286.7Z" transform="translate(-47.52 -58.92)"/><path class="cls-7" d="M187.86,130.71c.08-1.4,13.78,20.09,17.35,42.76,1.29,8.15-1.75,18.34-1.75,18.34l-25.7-57.71S187.18,143.35,187.86,130.71Z" transform="translate(-47.52 -58.92)"/><path class="cls-3" d="M169.05,126.06a18.85,18.85,0,0,1,3,2.68,15,15,0,0,1,2.61,3.93c.78,1.67,1.45,3.64,2.27,5.78v.07a18.61,18.61,0,0,0,1.09,5.8,42.05,42.05,0,0,0,2.79,6.11c2.28,4.13,4.75,8.67,7.14,13.5a275.44,275.44,0,0,1,12,27.9c1.34,3.65,2.33,6.63,3,8.7l.74,2.39a5.06,5.06,0,0,1,.22.85s-.12-.28-.32-.82-.48-1.36-.83-2.36c-.73-2-1.77-5-3.15-8.63-2.75-7.26-6.83-17.19-12.12-27.8-2.38-4.82-4.83-9.34-7.1-13.5a41.43,41.43,0,0,1-2.78-6.2,18.69,18.69,0,0,1-1.06-5.94v.07c-.8-2.15-1.45-4.13-2.19-5.79a15.25,15.25,0,0,0-2.48-3.91,26.28,26.28,0,0,0-2.08-2.11l-.57-.53A1.44,1.44,0,0,1,169.05,126.06Z" transform="translate(-47.52 -58.92)"/><path class="cls-3" d="M186.39,212s.21,0,.54.13a2.38,2.38,0,0,1,1,1.13,2.61,2.61,0,0,1,0,2.29,2.63,2.63,0,0,1-4.71-.46,2.67,2.67,0,0,1,.46-2.26A2.43,2.43,0,0,1,185,212c.36-.09.56,0,.56,0a3,3,0,0,0-1.51,1.12,2.38,2.38,0,0,0-.3,1.91,2,2,0,0,0,1.8,1.33,2,2,0,0,0,2-.95,2.34,2.34,0,0,0,.07-1.93A3,3,0,0,0,186.39,212Z" transform="translate(-47.52 -58.92)"/><path class="cls-3" d="M154.15,215.79s-.64-.23-1.79-.61a14.8,14.8,0,0,0-2.12-.56,6.49,6.49,0,0,0-2.83.07,4.39,4.39,0,0,0-2.61,2.06,27.19,27.19,0,0,0-1.63,3.7l-3.47,8.69c-.34.83-.67,1.65-1,2.43l-.25-.35a30.21,30.21,0,0,1,14.79,3.42,27.39,27.39,0,0,1,3.85,2.43c.43.31.74.59,1,.77s.31.28.3.3a16,16,0,0,1-1.37-.92,32.25,32.25,0,0,0-3.9-2.27,31.09,31.09,0,0,0-14.61-3.22l-.4,0,.15-.37,1-2.44c1.24-3.07,2.42-6,3.51-8.67a25.81,25.81,0,0,1,1.7-3.75,5.65,5.65,0,0,1,1.28-1.42,4.91,4.91,0,0,1,1.6-.77,6.53,6.53,0,0,1,3,0,11.83,11.83,0,0,1,2.13.65c.57.22,1,.42,1.29.56A1.88,1.88,0,0,1,154.15,215.79Z" transform="translate(-47.52 -58.92)"/><path class="cls-3" d="M203.79,204.47s0-.12,0-.36l.14-1.06c.15-1,.36-2.33.61-4,.56-3.51,1.35-8.43,2.29-14.33v0c.12-3,.26-6.24.33-9.69a53,53,0,0,0-.19-5.3c-.05-.91-.15-1.81-.28-2.73s-.25-1.84-.43-2.76a68,68,0,0,0-4.67-15A70.3,70.3,0,0,0,195.45,138a63,63,0,0,0-5.36-6.82c-.68-.76-1.26-1.31-1.63-1.71a6.16,6.16,0,0,1-.55-.61,3.84,3.84,0,0,1,.62.54c.39.37,1,.9,1.71,1.64a57.39,57.39,0,0,1,5.51,6.75,70.29,70.29,0,0,1,11,26.4c.18.93.33,1.86.43,2.78s.24,1.85.28,2.76a51,51,0,0,1,.18,5.35c-.08,3.46-.24,6.72-.38,9.7h0v0c-1,5.88-1.87,10.79-2.48,14.29-.31,1.69-.55,3-.73,4-.08.43-.15.77-.21,1.05A1.35,1.35,0,0,1,203.79,204.47Z" transform="translate(-47.52 -58.92)"/><path class="cls-4" d="M185.05,264.12c.52-.24,10.09,3.61,12,6.06a5,5,0,0,1,1.24,3.74s-12.21-5.22-14.71-4.87-4.22,4-5.77,1.63-1.79-2.62-1.79-2.62Z" transform="translate(-47.52 -58.92)"/><path class="cls-2" d="M161.06,126.06c3.51,0,12.52,6.83,13,24.4.48,17.08-.63,48-.63,48l14.22,64c.42.63-13.82,8.16-20.11,6.55,0,0-16.38-57.78-17.78-64.91s-4.44-40.29-3.27-47.77S145.87,126.09,161.06,126.06Z" transform="translate(-47.52 -58.92)"/><path class="cls-7" d="M169.28,262.07a1.46,1.46,0,1,0,.25.23" transform="translate(-47.52 -58.92)"/><path class="cls-3" d="M169.53,262.3s.15,0,.28.23a1.47,1.47,0,0,1,.2,1,1.71,1.71,0,0,1-.82,1.26,1.7,1.7,0,0,1-2.32-2.05,1.72,1.72,0,0,1,1.16-1,1.42,1.42,0,0,1,1,.09c.22.1.29.22.27.24s-.47-.23-1.15,0a1.38,1.38,0,0,0-.81.78,1.15,1.15,0,0,0,.39,1.22,1.17,1.17,0,0,0,1.26.24,1.38,1.38,0,0,0,.67-.9A2.12,2.12,0,0,0,169.53,262.3Z" transform="translate(-47.52 -58.92)"/><path class="cls-7" d="M167.89,258.28a1.22,1.22,0,1,0,.23,2.1,1.28,1.28,0,0,0-.23-2.1" transform="translate(-47.52 -58.92)"/><path class="cls-3" d="M167.89,258.28s.13,0,.31.08a1.27,1.27,0,0,1,.51.72,1.49,1.49,0,0,1-.26,1.32,1.47,1.47,0,0,1-2.5-1.1,1.45,1.45,0,0,1,.79-1.08,1.26,1.26,0,0,1,.88-.11c.2.06.28.15.27.17s-.45-.09-1,.26a1.12,1.12,0,0,0-.5.81,1,1,0,0,0,1.66.73,1.14,1.14,0,0,0,.26-.92C168.26,258.55,167.84,258.35,167.89,258.28Z" transform="translate(-47.52 -58.92)"/><path class="cls-7" d="M166.9,254.44a1.22,1.22,0,1,0,.23,2.1,1.28,1.28,0,0,0-.23-2.1" transform="translate(-47.52 -58.92)"/><path class="cls-3" d="M166.9,254.44s.13,0,.31.08a1.27,1.27,0,0,1,.51.72,1.46,1.46,0,0,1-.26,1.32,1.47,1.47,0,0,1-2.5-1.1,1.46,1.46,0,0,1,.8-1.08,1.25,1.25,0,0,1,.87-.12c.2.06.28.16.27.18s-.45-.09-1,.26a1.1,1.1,0,0,0-.5.8.93.93,0,0,0,.61.88,1,1,0,0,0,1.06-.14,1.13,1.13,0,0,0,.25-.92C167.28,254.71,166.86,254.51,166.9,254.44Z" transform="translate(-47.52 -58.92)"/><path class="cls-3" d="M146.72,154.64s0,.2,0,.59,0,1,0,1.75c0,1.54.07,3.8.21,6.73.27,5.85.84,14.31,1.67,24.81q.33,3.93.68,8.24c.13,1.43.25,2.89.38,4.38,0,.38.07.75.1,1.13l.05.56.12.54c.14.73.35,1.48.53,2.23,1.54,6,3.31,12.42,5.16,19.18l12.23,44.13-.22-.19a22.34,22.34,0,0,0,7.51-.69,39.73,39.73,0,0,0,12.42-5.8l-.1.26c-5.31-24-10.15-45.73-14-63.11v0c.6-14.09,1.08-25.58,1.42-33.56.18-4,.32-7.07.42-9.19q.08-1.56.12-2.4c0-.54.07-.82.07-.82s0,.28,0,.82,0,1.36-.06,2.4c-.07,2.13-.18,5.23-.31,9.2-.3,8-.72,19.47-1.24,33.57v-.06l14.12,63.09,0,.17-.13.09a40.11,40.11,0,0,1-12.6,5.89,22.85,22.85,0,0,1-7.69.71l-.18,0-.05-.17c-4.34-15.73-8.46-30.64-12.19-44.15-1.83-6.76-3.58-13.17-5.11-19.2-.18-.75-.38-1.49-.53-2.26l-.12-.57-.05-.57-.09-1.12c-.13-1.49-.25-3-.37-4.39-.22-2.87-.44-5.62-.64-8.25-.79-10.49-1.31-19-1.52-24.82-.11-2.93-.13-5.2-.11-6.74,0-.77.06-1.36.08-1.75S146.72,154.64,146.72,154.64Z" transform="translate(-47.52 -58.92)"/></g><g id="Shopping_Cart" data-name="Shopping Cart"><path class="cls-3" d="M365,291.59c-.09,0,1.65-12.06,3.9-26.91s4.13-26.88,4.21-26.87-1.65,12.06-3.9,26.92S365.08,291.6,365,291.59Z" transform="translate(-47.52 -58.92)"/><path class="cls-3" d="M432.32,242.69s0,.06-.11.17l-.34.45-1.34,1.75-4.94,6.39c-4.16,5.39-9.88,12.89-16.07,21.25s-11.69,16-15.64,21.57l-4.67,6.59-1.28,1.79-.34.46a1.22,1.22,0,0,1-.12.15s0-.06.1-.17l.31-.48,1.23-1.82c1.06-1.58,2.63-3.85,4.58-6.65,3.91-5.59,9.38-13.27,15.57-21.63s11.94-15.84,16.15-21.2c2.11-2.69,3.83-4.85,5-6.33l1.38-1.71.37-.43Z" transform="translate(-47.52 -58.92)"/><path class="cls-3" d="M453.84,298.44c0,.08-10.37,4.21-23.24,9.23s-23.33,9-23.36,8.93,10.37-4.21,23.25-9.23S453.81,298.35,453.84,298.44Z" transform="translate(-47.52 -58.92)"/><path class="cls-3" d="M343.85,287.71c-.08,0-2.13-5.1-4.56-11.46s-4.35-11.54-4.27-11.57,2.13,5.1,4.57,11.46S343.93,287.68,343.85,287.71Z" transform="translate(-47.52 -58.92)"/><path class="cls-3" d="M434.4,349.75c0,.08-4.8-2.89-10.62-6.62s-10.51-6.81-10.46-6.89,4.81,2.89,10.63,6.62S434.45,349.68,434.4,349.75Z" transform="translate(-47.52 -58.92)"/><circle class="cls-3" cx="285.4" cy="407.82" r="11.58"/><circle class="cls-7" cx="285.4" cy="407.82" r="6.31"/><path class="cls-6" d="M352.92,447.91v7.73l-18,14.47a6.89,6.89,0,0,1-2.77,1.19c-1.33.14-2.58-.61-2.58-2.6,0-3.76,4.69-14.74,4.69-14.74h3.76v-6Z" transform="translate(-47.52 -58.92)"/><path class="cls-3" d="M331.91,467.74c-.05,0-.23-.45.28-.95a1.21,1.21,0,0,1,1.15-.22,1.25,1.25,0,0,1,.85,1.17,1.27,1.27,0,0,1-.85,1.18,1.18,1.18,0,0,1-1.15-.23c-.51-.49-.33-1-.28-.95s.09.39.51.66a.86.86,0,0,0,.76.07.78.78,0,0,0,.48-.73.77.77,0,0,0-.48-.72.83.83,0,0,0-.76.07C332,467.35,332,467.76,331.91,467.74Z" transform="translate(-47.52 -58.92)"/><path class="cls-3" d="M334.3,454a13.22,13.22,0,0,1,2.73-.16c1.69,0,4,0,6.59.05l6.58.21a14.71,14.71,0,0,1,2.72.2,13.58,13.58,0,0,1-2.73.17c-1.68,0-4,0-6.59-.06l-6.57-.21A13.75,13.75,0,0,1,334.3,454Z" transform="translate(-47.52 -58.92)"/><circle class="cls-3" cx="144.95" cy="407.93" r="11.58"/><circle class="cls-7" cx="144.95" cy="407.93" r="6.31"/><path class="cls-6" d="M212.47,445.82v9.94l-18,14.47a6.89,6.89,0,0,1-2.77,1.19c-1.34.14-2.59-.61-2.59-2.6,0-3.76,4.7-14.74,4.7-14.74h3.75v-8.26Z" transform="translate(-47.52 -58.92)"/><path class="cls-3" d="M191.45,467.86s-.22-.45.29-.95a1.18,1.18,0,0,1,1.15-.22,1.23,1.23,0,0,1,0,2.34,1.16,1.16,0,0,1-1.15-.22c-.51-.5-.34-1-.29-.95s.1.39.51.66a.84.84,0,0,0,.76.06.77.77,0,0,0,0-1.44.84.84,0,0,0-.76.06C191.55,467.47,191.53,467.87,191.45,467.86Z" transform="translate(-47.52 -58.92)"/><path class="cls-3" d="M193.85,454.08a13.58,13.58,0,0,1,2.73-.17c1.68,0,4,0,6.58.06l6.58.21a13.75,13.75,0,0,1,2.73.2,13.58,13.58,0,0,1-2.73.17c-1.69,0-4,0-6.59-.06l-6.58-.21A14.71,14.71,0,0,1,193.85,454.08Z" transform="translate(-47.52 -58.92)"/><path class="cls-6" d="M247.58,393.87a8.12,8.12,0,0,1-7.67-5.49l-33.8-99.1,179.29,29-4.11,60.52a7.52,7.52,0,0,1-7,7l-126.19,8.1Zm-38.5-102.08,32.72,95.95a6.13,6.13,0,0,0,6.17,4.12l126.19-8.11a5.51,5.51,0,0,0,5.13-5.11l4-58.7Z" transform="translate(-47.52 -58.92)"/><polygon class="cls-6" points="166.73 253.7 159.23 247.98 151.83 226.44 145.33 222.67 146.34 220.94 153.47 225.08 160.93 246.76 167.94 252.11 166.73 253.7"/><rect class="cls-6" x="297.66" y="234.94" width="2" height="171.19" transform="translate(-107.01 513.94) rotate(-82.19)"/><rect class="cls-6" x="302.46" y="263.09" width="2" height="159.54" transform="translate(-104.28 566.57) rotate(-86.61)"/><rect class="cls-6" x="233.69" y="364.19" width="147.49" height="2" transform="translate(-57.03 -50.69) rotate(-1.51)"/><rect class="cls-6" x="240.1" y="380.73" width="140.29" height="2" transform="translate(-65.61 -43.47) rotate(-2.77)"/><path class="cls-6" d="M367.9,384l-2-.17c1.87-22.33,3.13-45,3.72-67.41l2,.06C371,338.86,369.78,361.58,367.9,384Z" transform="translate(-47.52 -58.92)"/><path class="cls-6" d="M356.4,385.12l-2,0c0-.47.34-47.43.93-69.7l2,.06C356.74,337.71,356.4,384.64,356.4,385.12Z" transform="translate(-47.52 -58.92)"/><rect class="cls-6" x="341.7" y="311.78" width="2" height="73.58" transform="translate(-56.56 -49.79) rotate(-1.51)"/><rect class="cls-6" x="327.19" y="309.46" width="2" height="77.42" transform="matrix(1, -0.07, 0.07, 1, -72.35, -33.71)"/><rect class="cls-6" x="309.67" y="305.58" width="2" height="82.75" transform="translate(-90.94 -14.47) rotate(-7.65)"/><rect class="cls-6" x="290.41" y="301.15" width="2" height="88.77" transform="translate(-106.03 0.49) rotate(-10.58)"/><rect class="cls-6" x="267.95" y="297.12" width="2" height="94.55" transform="translate(-123.88 17.71) rotate(-14.22)"/><rect class="cls-6" x="240.64" y="290.67" width="2" height="108.35" transform="translate(-142.3 32.69) rotate(-18.01)"/><path class="cls-6" d="M359.05,449.71H359L195.47,447a2.49,2.49,0,0,1-1.76-.77,2.55,2.55,0,0,1-.7-1.8c.08-2.93.5-17.72,1.64-21,.4-1.16,1.08-3.1,28.24-16.41,2.69-1.33,26.42-12.92,29.7-13.1s33.55-1.48,34.83-1.53a2.5,2.5,0,0,1,.21,5c-.31,0-30.87,1.31-34.67,1.51-4.29.92-49,22.4-53.69,26.53-.49,2.12-1,9.48-1.19,16.58l161,2.63a2.5,2.5,0,0,1,0,5Z" transform="translate(-47.52 -58.92)"/><path class="cls-6" d="M286.94,445.54,266.17,445c-3.92-.19-6.85-1.36-8.74-3.46s-2.59-4.73-2.39-8.16a18.74,18.74,0,0,1,3-8.94l20.09-29.71,1.66,1.12-20.08,29.7a16.45,16.45,0,0,0-2.71,7.95c-.17,2.87.46,5.13,1.88,6.71s4,2.63,7.32,2.79l20.74.51Z" transform="translate(-47.52 -58.92)"/><path class="cls-6" d="M281.17,395.71c-16.73-30.15-60.65-108.94-62.85-111.45-1.33-1.19-12-5-18.46-7.05l.62-1.9c1.74.57,17.07,5.58,19.21,7.49s53,93.57,63.23,111.93Z" transform="translate(-47.52 -58.92)"/><path class="cls-6" d="M204.48,276.86l-11,6.69s-12.73-5.76-13.79-7.12-1.36-6.43,3-7.38S204.48,276.86,204.48,276.86Z" transform="translate(-47.52 -58.92)"/><path class="cls-3" d="M183.29,273.54s-.09-.19,0-.53a2.08,2.08,0,0,1,.75-1.27,2.21,2.21,0,0,1,2.16-.38,2.3,2.3,0,0,1,0,4.36,2.24,2.24,0,0,1-2.16-.38,2.08,2.08,0,0,1-.75-1.27c-.05-.34,0-.53,0-.53s.06.18.16.48a2,2,0,0,0,.77,1,1.91,1.91,0,0,0,1.78.22,1.85,1.85,0,0,0,0-3.46,1.88,1.88,0,0,0-1.78.22,2.05,2.05,0,0,0-.77,1C183.35,273.35,183.33,273.54,183.29,273.54Z" transform="translate(-47.52 -58.92)"/><path class="cls-3" d="M195.52,446.6c0-.14,36.54.32,81.6,1s81.61,1.42,81.61,1.56-36.53-.32-81.61-1S195.51,446.74,195.52,446.6Z" transform="translate(-47.52 -58.92)"/></g><g id="Floor"><path class="cls-3" d="M447.07,478.44c0,.14-89.13.26-199.06.26s-199.08-.12-199.08-.26,89.11-.26,199.08-.26S447.07,478.29,447.07,478.44Z" transform="translate(-47.52 -58.92)"/></g></svg>