<svg id="BACKGROUND1" xmlns="http://www.w3.org/2000/svg" viewBox="0 0 500 500"><defs><style>.cls-1{fill:#fff;}.cls-2{fill:#3a3a3a;}.cls-3,.cls-5{fill:#b3b3b3;}.cls-4{fill:#e3e3e5;}.cls-5{font-size:106.99px;font-family:AllerDisplay;}.cls-6{fill:#d7d7dd;}.cls-7{fill:#ffae5e;}.cls-8{fill:#ff924d;}</style></defs><title>error404</title><rect class="cls-1" width="500" height="500"/><path class="cls-2" d="M270.07,316.69c-23.76-3.19-52.48-.42-64.14,6.21s-1.83,14.58,21.94,17.77,52.48.42,64.14-6.2S293.84,319.89,270.07,316.69Z"/><path class="cls-3" d="M205.93,327c11.66-6.63,40.37-9.4,64.14-6.21,14.62,2,23.95,5.74,26.27,9.89,3.16-5.62-6.94-11.37-26.27-14-23.77-3.19-52.48-.42-64.14,6.21-4.48,2.54-5.78,5.29-4.33,7.89A11,11,0,0,1,205.93,327Z"/><path class="cls-4" d="M361.86,227l-63.52.85L299,248l-59,12,15,8-11,16,39,14-14.05,18.54L249.64,342c-1.09,0-2.17,0-3.25,0l15.91-26.11L272,300l-39-12,8-16-30-15,59-17-18.71-11.51L138.69,230,114,77,374,52ZM382,70,370,211,388,73ZM106,86l-4,6,17,52ZM336,37,172,62,338,47ZM118.13,214l2.87,8h7l-1.55-8ZM115,155H97l17.91,50h9.79Zm269,1h7l2.87-8h-8.32Zm13-67-9.7,50h9.79L415,89Z"/><text class="cls-5" transform="translate(167.68 187.51)">404</text><path class="cls-6" d="M174.67,331.91c7.9,4.32,1.25,9.5-14.86,11.59s-35.58.27-43.48-4.05-1.25-9.5,14.86-11.58S166.77,327.6,174.67,331.91Z"/><path class="cls-7" d="M178,333.74l-.54-2.39a2.84,2.84,0,0,1,.05.58,2.84,2.84,0,0,0-.05-.58,4.84,4.84,0,0,0-1.16-2.1l-.41-.41c-.25-.22-.6-.5-.87-.7a12.26,12.26,0,0,0-1.14-.73c-.45-.24-1.06-.56-1.52-.77s-.95-.41-1.36-.56c-.79-.29-1.87-.63-2.68-.87-.52-.16-1.23-.33-1.76-.46-1.2-.3-3.12-.67-3.57-.74s-1.35-.23-1.93-.31c-1.2-.16-2.81-.36-4-.48a100,100,0,0,0-10.91-.44c-1.62,0-1.62,0-4.47.16-.66,0-1.55.11-2.21.15s-2,.18-4.36.47c-.19,0-1.88.25-3.93.64-1,.2-2.39.53-3.41.78a30.76,30.76,0,0,0-4.51,1.53,16,16,0,0,0-2.13,1.1,10,10,0,0,0-1.6,1.22,5.73,5.73,0,0,0-.62.68,5.56,5.56,0,0,0-.41.62,4.51,4.51,0,0,0-.28.57,3.76,3.76,0,0,0-.17.55,2.85,2.85,0,0,0,0,.29,2.85,2.85,0,0,1,0-.29c-.19.8-.37,1.59-.56,2.39-.33,1.41.63,2.88,3,4.25,7.38,4.19,25.54,5.94,40.58,3.92C172.46,340.28,178.78,337,178,333.74Z"/><path class="cls-8" d="M173.15,327.27c6.87,3.91,1.08,8.6-12.94,10.49s-31,.24-37.83-3.66-1.08-8.6,12.94-10.49S166.27,323.36,173.15,327.27Zm-7,.94c-5-2.83-17.26-4-27.42-2.65s-14.35,4.77-9.37,7.6,17.25,4,27.41,2.65,14.36-4.77,9.38-7.6"/><path class="cls-8" d="M153.23,277.49a2.88,2.88,0,0,0-1.39-1.69,6.37,6.37,0,0,0-2.45-.71,13.21,13.21,0,0,0-3.23,0,5.57,5.57,0,0,0-2.51.82,3.06,3.06,0,0,0-.76.73,2.6,2.6,0,0,0-.39.81c-.08.26.09.53.53.78,1.31.74,4.53,1.05,7.2.69C152.27,278.67,153.39,278.08,153.23,277.49Z"/><path class="cls-7" d="M127.34,330.2l1.51-5.27.76-2.64c.45-1.58,1.06-3.69,1.52-5.27l1.51-5.27.76-2.64c.46-1.58,1.06-3.69,1.52-5.27s1.06-3.69,1.51-5.28l.76-2.63,1.52-5.28,1.51-5.27.76-2.64c.46-1.58,1.06-3.69,1.52-5.27-.08.26.09.53.53.78,1.31.74,4.53,1.05,7.2.69,2-.27,3.17-.86,3-1.45h0c.45,1.58,1.05,3.69,1.49,5.28l1.5,5.28,1.5,5.27c.45,1.59,1.05,3.7,1.49,5.28l1.5,5.28,1.5,5.28c.22.79.52,1.85.75,2.64.44,1.58,1,3.69,1.49,5.27l1.5,5.28c.22.79.52,1.85.75,2.64.45,1.59,1.05,3.7,1.49,5.28.64,2.26-3.64,4.49-11.41,5.54-10.16,1.36-22.43.18-27.41-2.65C127.69,332.2,127.05,331.19,127.34,330.2Z"/><path class="cls-1" d="M160.15,301.92c.39,1.36-2.19,2.71-6.89,3.34-6.13.83-13.54.11-16.55-1.6-1-.57-1.4-1.19-1.23-1.78.45-1.58,1.06-3.69,1.52-5.28.22-.79.53-1.84.75-2.63.32-1.1.74-2.55,1.05-3.65-.12.44.16.89.9,1.31,2.2,1.25,7.63,1.78,12.13,1.18,3.43-.47,5.33-1.46,5-2.45l1.49,5.27c.23.79.53,1.85.75,2.64l1,3.65"/><path class="cls-1" d="M166.13,323c.58,2-3.27,4-10.25,5-9.13,1.22-20.15.16-24.63-2.39-1.51-.85-2.08-1.77-1.83-2.65.46-1.58,1.06-3.69,1.52-5.27l.76-2.64c.31-1.09.73-2.55,1.05-3.64-.21.72.26,1.47,1.49,2.17,3.67,2.09,12.72,3,20.21,2,5.72-.77,8.88-2.42,8.4-4.08L166.13,323"/><polygon class="cls-7" points="177.47 331.35 177.47 331.35 177.47 331.35 177.47 331.35"/><path class="cls-6" d="M368.81,327.87c16.11,2.08,22.76,7.27,14.86,11.58s-27.36,6.13-43.48,4.05-22.76-7.27-14.86-11.59S352.69,325.79,368.81,327.87Z"/><path class="cls-7" d="M322,333.74l.54-2.39a2.84,2.84,0,0,0,0,.58,2.84,2.84,0,0,1,0-.58,4.84,4.84,0,0,1,1.16-2.1l.41-.41c.25-.22.6-.5.87-.7a12.26,12.26,0,0,1,1.14-.73c.45-.24,1.06-.56,1.52-.77s.95-.41,1.36-.56c.79-.29,1.87-.63,2.68-.87.52-.16,1.23-.33,1.76-.46,1.2-.3,3.12-.67,3.57-.74s1.35-.23,1.93-.31c1.2-.16,2.81-.36,4-.48a100,100,0,0,1,10.91-.44c1.62,0,1.62,0,4.47.16.66,0,1.55.11,2.21.15s2,.18,4.36.47c.19,0,1.88.25,3.93.64,1,.2,2.39.53,3.41.78a30.76,30.76,0,0,1,4.51,1.53,16,16,0,0,1,2.13,1.1,10,10,0,0,1,1.6,1.22,5.73,5.73,0,0,1,.62.68,5.56,5.56,0,0,1,.41.62,4.51,4.51,0,0,1,.28.57,3.76,3.76,0,0,1,.17.55,2.85,2.85,0,0,1,0,.29,2.85,2.85,0,0,0,0-.29c.19.8.37,1.59.56,2.39.33,1.41-.63,2.88-3,4.25-7.38,4.19-25.54,5.94-40.58,3.92C327.54,340.28,321.22,337,322,333.74Z"/><path class="cls-8" d="M364.68,323.61c14,1.89,19.82,6.58,12.94,10.49s-23.81,5.54-37.83,3.66-19.81-6.58-12.94-10.49S350.66,321.73,364.68,323.61Zm-30.84,4.6c-5,2.83-.78,6.23,9.38,7.6s22.43.18,27.41-2.65.79-6.23-9.37-7.6-22.44-.18-27.42,2.65"/><path class="cls-8" d="M346.77,277.49a2.88,2.88,0,0,1,1.39-1.69,6.37,6.37,0,0,1,2.45-.71,13.21,13.21,0,0,1,3.23,0,5.57,5.57,0,0,1,2.51.82,3.06,3.06,0,0,1,.76.73,2.6,2.6,0,0,1,.39.81c.08.26-.09.53-.53.78-1.31.74-4.53,1.05-7.2.69C347.73,278.67,346.61,278.08,346.77,277.49Z"/><path class="cls-7" d="M372.66,330.2l-1.51-5.27-.76-2.64c-.45-1.58-1.06-3.69-1.52-5.27l-1.51-5.27-.76-2.64c-.46-1.58-1.06-3.69-1.52-5.27s-1.06-3.69-1.51-5.28l-.76-2.63-1.52-5.28-1.51-5.27-.76-2.64c-.46-1.58-1.06-3.69-1.52-5.27.08.26-.09.53-.53.78-1.31.74-4.53,1.05-7.2.69-2-.27-3.17-.86-3-1.45h0c-.45,1.58-1,3.69-1.49,5.28l-1.5,5.28-1.5,5.27c-.45,1.59-1,3.7-1.49,5.28l-1.5,5.28-1.5,5.28c-.22.79-.52,1.85-.75,2.64-.44,1.58-1,3.69-1.49,5.27l-1.5,5.28c-.22.79-.52,1.85-.75,2.64-.45,1.59-1.05,3.7-1.49,5.28-.64,2.26,3.64,4.49,11.41,5.54,10.16,1.36,22.43.18,27.41-2.65C372.31,332.2,373,331.19,372.66,330.2Z"/><path class="cls-1" d="M339.85,301.92c-.39,1.36,2.19,2.71,6.89,3.34,6.13.83,13.54.11,16.55-1.6,1-.57,1.4-1.19,1.23-1.78-.45-1.58-1.06-3.69-1.52-5.28-.22-.79-.53-1.84-.75-2.63-.32-1.1-.74-2.55-1.05-3.65.12.44-.16.89-.9,1.31-2.2,1.25-7.63,1.78-12.13,1.18-3.43-.47-5.33-1.46-5.05-2.45l-1.49,5.27c-.23.79-.53,1.85-.75,2.64l-1,3.65"/><path class="cls-1" d="M333.87,323c-.58,2,3.27,4,10.25,5,9.13,1.22,20.15.16,24.63-2.39,1.51-.85,2.08-1.77,1.83-2.65-.46-1.58-1.06-3.69-1.52-5.27L368.3,315c-.31-1.09-.73-2.55-1.05-3.64.21.72-.26,1.47-1.49,2.17-3.67,2.09-12.72,3-20.21,2-5.72-.77-8.88-2.42-8.4-4.08L333.87,323"/><polygon class="cls-7" points="322.52 331.35 322.52 331.35 322.52 331.35 322.52 331.35"/></svg>