<?xml version="1.0" encoding="iso-8859-1"?><svg xmlns="http://www.w3.org/2000/svg" xmlns:xlink="http://www.w3.org/1999/xlink" version="1.1" id="Layer_1" x="0px" y="0px" viewBox="0 0 512 512" style="enable-background:new 0 0 512 512;" xml:space="preserve" width="64px" height="64px"><circle style="fill:#FFF7C0;" cx="256" cy="256" r="179.574"/><circle style="fill:#FFF082;" cx="256" cy="256" r="153.921"/><circle style="fill:#FFC850;" cx="256" cy="350.063" r="42.756"/><path style="fill:#FFDC64;" d="M350.063,281.205v-59.41c0-51.949-42.113-94.063-94.063-94.063l0,0  c-51.949,0-94.063,42.113-94.063,94.063v59.41c0,5.826-1.983,11.477-5.621,16.026l-25.808,32.261  c-1.796,2.245-2.775,5.034-2.775,7.91l0,0c0,6.993,5.668,12.661,12.661,12.661h231.212c6.993,0,12.661-5.668,12.661-12.661l0,0  c0-2.875-0.978-5.664-2.775-7.91l-25.808-32.261C352.045,292.682,350.063,287.031,350.063,281.205z"/><path style="fill:#FFC850;" d="M161.937,221.795v59.41c0,5.826-1.983,11.477-5.621,16.026l-25.808,32.261  c-1.796,2.245-2.775,5.034-2.775,7.909c0,6.993,5.668,12.661,12.661,12.661h46.242c-4.195,0-7.597-5.668-7.597-12.661  c0-2.874,0.587-5.664,1.664-7.909l15.485-32.261c2.183-4.548,3.373-10.2,3.373-16.026v-59.41c0-51.949,25.268-94.063,56.438-94.063  C204.051,127.733,161.937,169.846,161.937,221.795z"/><path d="M361.944,292.224c-2.493-3.116-3.865-7.028-3.865-11.018v-59.41c0-56.287-45.792-102.079-102.079-102.079  s-102.079,45.792-102.079,102.079v59.41c0,3.989-1.372,7.902-3.865,11.018l-25.808,32.261c-2.922,3.652-4.531,8.24-4.531,12.918  c0,11.402,9.276,20.678,20.678,20.678h65.472c3.855,24.2,24.866,42.756,50.133,42.756s46.278-18.556,50.133-42.756h65.472  c11.402,0,20.678-9.276,20.678-20.678c0-4.677-1.609-9.265-4.531-12.918L361.944,292.224z M256,384.802  c-16.396,0-30.165-11.421-33.795-26.722h67.589C286.165,373.38,272.396,384.802,256,384.802z M371.606,342.046H140.394  c-2.561,0-4.644-2.083-4.644-4.644c0-1.051,0.361-2.081,1.018-2.902l25.808-32.261c4.759-5.947,7.379-13.418,7.379-21.034v-59.409  c0-47.446,38.6-86.046,86.046-86.046s86.046,38.6,86.046,86.046v59.41c0,7.616,2.62,15.085,7.379,21.034l25.808,32.26  c0.656,0.821,1.018,1.85,1.018,2.902C376.251,339.963,374.167,342.046,371.606,342.046z"/><path d="M293.175,174.237c-3.165,3.096-3.223,8.172-0.127,11.337c9.54,9.755,14.793,22.618,14.793,36.222v25.653  c0,4.427,3.589,8.017,8.017,8.017c4.427,0,8.017-3.589,8.017-8.017v-25.653c0-17.818-6.876-34.663-19.363-47.432  C301.416,171.198,296.341,171.141,293.175,174.237z"/><path d="M275.366,156.736c-6.266-1.868-12.782-2.815-19.366-2.815c-4.427,0-8.017,3.589-8.017,8.017s3.589,8.017,8.017,8.017  c5.032,0,10.007,0.723,14.786,2.147c0.764,0.228,1.535,0.336,2.294,0.336c3.454,0,6.642-2.249,7.68-5.728  C282.023,162.465,279.61,158.001,275.366,156.736z"/><path d="M435.3,140.49c-2.403-3.72-7.365-4.789-11.083-2.387c-3.72,2.402-4.788,7.364-2.387,11.083  c24.066,37.278,34.856,82.272,30.383,126.692c-4.534,45.037-24.694,87.501-56.764,119.571c-3.131,3.131-3.131,8.207,0,11.337  c1.565,1.566,3.617,2.348,5.668,2.348s4.103-0.782,5.668-2.348c34.677-34.676,56.475-80.597,61.379-129.302  C473.001,229.461,461.329,180.809,435.3,140.49z"/><path d="M403.919,125.559c1.584,1.793,3.792,2.709,6.011,2.709c1.887,0,3.781-0.662,5.305-2.008c3.318-2.932,3.631-7.997,0.7-11.315  c-2.927-3.313-6.004-6.585-9.148-9.729c-3.132-3.132-8.207-3.131-11.338,0c-3.131,3.131-3.131,8.206,0,11.337  C398.361,119.462,401.21,122.493,403.919,125.559z"/><path d="M16.033,256c0-64.097,24.961-124.358,70.284-169.683c3.131-3.131,3.131-8.207,0-11.337c-3.131-3.131-8.207-3.131-11.337,0  C26.628,123.333,0,187.62,0,256s26.628,132.667,74.981,181.019c1.565,1.565,3.617,2.348,5.668,2.348  c2.051,0,4.103-0.782,5.668-2.348c3.131-3.131,3.131-8.206,0-11.337C40.994,380.358,16.033,320.097,16.033,256z"/><path d="M437.019,74.981c-3.131-3.131-8.207-3.131-11.337,0c-3.131,3.131-3.131,8.206,0,11.337  c45.323,45.324,70.284,105.585,70.284,169.683s-24.961,124.358-70.284,169.683c-3.131,3.131-3.131,8.207,0,11.337  c1.565,1.565,3.617,2.348,5.668,2.348c2.051,0,4.103-0.782,5.668-2.348C485.372,388.667,512,324.38,512,256  S485.372,123.333,437.019,74.981z"/><path d="M105.213,105.214c-34.677,34.676-56.475,80.597-61.379,129.302C39,282.538,50.671,331.191,76.7,371.511  c1.534,2.376,4.111,3.671,6.743,3.671c1.49,0,2.996-0.415,4.341-1.283c3.72-2.402,4.788-7.364,2.387-11.083  c-24.066-37.278-34.856-82.272-30.383-126.692c4.534-45.037,24.694-87.501,56.764-119.571c3.131-3.131,3.131-8.207,0-11.337  C113.42,102.082,108.344,102.082,105.213,105.214z"/><path d="M108.081,386.441c-2.932-3.318-7.997-3.631-11.315-0.699s-3.631,7.997-0.7,11.315c2.927,3.313,6.004,6.585,9.148,9.729  c1.566,1.566,3.617,2.348,5.669,2.348c2.052,0,4.103-0.782,5.668-2.348c3.131-3.131,3.131-8.206,0-11.337  C113.639,392.538,110.79,389.507,108.081,386.441z"/><g></g><g></g><g></g><g></g><g></g><g></g><g></g><g></g><g></g><g></g><g></g><g></g><g></g><g></g><g></g></svg>