<svg xmlns="http://www.w3.org/2000/svg" viewBox="0 0 19.89 19.89"><defs><style>.cls-1{fill:#F97349;}</style></defs><title>telegram</title><g id="Layer_2" data-name="Layer 2"><g id="Layer_1-2" data-name="Layer 1"><path class="cls-1" d="M19.58.54a1.21,1.21,0,0,0-1-.54,1.8,1.8,0,0,0-.72.17L1,7.76A1.43,1.43,0,0,0,0,9.1a1.4,1.4,0,0,0,1.07,1.26h0l3.5,1.18,1.89,6.38A1.69,1.69,0,0,0,8,19.34a1.64,1.64,0,0,0,1.21-.61l2.16-2.35,3.13,3h0l0,0h0a1.66,1.66,0,0,0,1.1.49h0c.73,0,1.31-.64,1.47-1.62l2.76-16.1A2.22,2.22,0,0,0,19.58.54ZM5.75,11.32l6.73-4.07L8.29,12.52a.68.68,0,0,0-.14.31L7.34,16.7Zm2.64,6.4a.6.6,0,0,1-.08.08l.75-3.59,1.36,1.3ZM18.7,1.9,15.94,18c0,.15-.11.51-.33.51a.67.67,0,0,1-.38-.19l-3.55-3.38h0l-2.11-2,6.06-7.61a.78.78,0,0,0,0-.89.54.54,0,0,0-.74-.2l-10,6L1.43,9.05,18.26,1.46a.66.66,0,0,1,.3-.08s.1,0,.12,0A.75.75,0,0,1,18.7,1.9Z"/></g></g></svg>