<?xml version="1.0" encoding="utf-8"?>
<!-- Generator: Adobe Illustrator 23.1.0, SVG Export Plug-In . SVG Version: 6.00 Build 0)  -->
<svg version="1.1" id="Layer_1" xmlns="http://www.w3.org/2000/svg" xmlns:xlink="http://www.w3.org/1999/xlink" x="0px" y="0px"
	 viewBox="0 0 512 512" style="enable-background:new 0 0 512 512;" xml:space="preserve">
<style type="text/css">
	.st0{fill:#F35530;}
</style>
<g>
	<path class="st0" d="M393.3,423.7c0-9.6-4-18.8-11.6-26.5c-4.7-5.1-9.8-10.1-14.7-14.9c-2.5-2.4-5.1-4.9-7.5-7.4l-21.6-21.6
		c-16.6-16.6-38.1-16.6-54.7,0c-2.2,2.2-4.5,4.4-6.7,6.6c-5.9,5.8-12.1,11.9-18,18.3c-10.7-4.8-21.2-11.5-33.7-21.3
		c-12.4-10.1-57.4-55.1-67.5-67.5c-9.9-12.5-16.5-23-21.3-33.7c6.5-5.9,12.5-12.1,18.3-18c2.2-2.2,4.4-4.5,6.6-6.7
		c16.6-16.6,16.6-38.1,0-54.7l-21.6-21.6c-2.4-2.5-5-5-7.4-7.5c-4.7-4.9-9.7-10-14.9-14.7c-7.7-7.6-16.8-11.6-26.5-11.6
		c-9.6,0-19,4-26.9,11.6l-0.2,0.2L53,143.5c-10.1,10.1-15.9,22.5-17.2,36.8C34,203.4,40.8,224.9,46,239
		c12.8,34.6,31.9,66.6,60.5,100.9c10.4,12.4,21.4,24,33.1,34.9c10.8,11.6,22.4,22.7,34.9,33.1c34.3,28.5,66.3,47.7,100.9,60.5
		c14.1,5.2,35.6,12,58.7,10.1c14.3-1.3,26.6-7,36.8-17.2l10.7-10.5l0.2-0.2C389.2,442.7,393.3,433.4,393.3,423.7z"/>
	<g>
		<path d="M489.7,238.6C489.7,118,391.7,20,271.1,20c-50.6,0-99.9,17.7-138.8,49.7c-5.7,4.7-6.5,13-1.8,18.7
			c4.7,5.7,13,6.5,18.7,1.8c34.2-28.2,77.5-43.7,122-43.7c105.9,0,192,86.1,192,192c0,58.3-26.6,113.3-71.8,149.7
			c-0.1-0.1-0.1-0.1-0.2-0.2c-5-5.4-10.2-10.5-15.1-15.2c0,0-0.1-0.1-0.2-0.1c-2.3-2.1-4.6-4.5-6.9-6.7L347.2,344
			c-10.7-10.7-23.4-16.3-36.7-16.3c-13.3,0-26.1,5.6-36.7,16.3c-1,1-2.1,2.1-3.2,3.1c-1.2,1.2-2.4,2.3-3.5,3.4l-1.6,1.6
			c-3.3,3.2-6.6,6.5-9.9,9.9c-7-3.9-14.2-8.9-22.5-15.4c-11.9-9.7-55.7-53.5-65.4-65.4c-6.5-8.3-11.5-15.5-15.4-22.5
			c3.4-3.3,6.6-6.6,9.8-9.9l1.6-1.6c1.2-1.2,2.4-2.4,3.5-3.6c1-1.1,2.1-2.1,3.1-3.1c21.6-21.6,21.6-51.8,0-73.5l-10.4-10.4
			c4.1-5.6,8.7-10.9,13.6-15.8c53.9-53.9,141.6-53.9,195.5,0c41.4,41.4,52.2,104.6,27,157.4c-3.2,6.6-0.4,14.5,6.2,17.7
			c1.8,0.9,3.8,1.3,5.7,1.3c4.9,0,9.7-2.8,12-7.5c30.1-62.9,17.2-138.3-32.2-187.6c-64.2-64.2-168.8-64.2-233,0
			c-4.9,4.9-9.5,10.1-13.7,15.5c-4.6-4.7-9.5-9.8-14.7-14.6c-10.2-10-22.5-15.3-35.7-15.3c-13.2,0-25.6,5.3-36.1,15.3
			c-0.1,0.1-0.1,0.1-0.2,0.2l-0.2,0.2c0,0-0.1,0.1-0.1,0.1l-10.4,10.7c-12.3,12.4-19.4,27.5-20.9,45c-2.1,25.7,5.2,49,10.9,64.4
			C47,279.7,66.9,313,96.3,348.4c10.5,12.6,21.9,24.6,33.9,35.7c11.1,11.9,23.1,23.3,35.8,33.9c35.4,29.4,68.7,49.3,104.8,62.7
			c13.1,4.8,33,11.3,55.2,11.3c0,0,0,0,0,0c3.1,0,6.1-0.1,9.2-0.4c17.4-1.5,32.6-8.6,44.9-20.9l10.7-10.4c0,0,0.1-0.1,0.1-0.1
			l0.2-0.2c0.1-0.1,0.1-0.1,0.2-0.2c10-10.4,15.3-22.9,15.3-36.1c0-4.2-0.5-8.3-1.6-12.3C458.2,370.1,489.7,306.3,489.7,238.6z
			 M372.2,441.3l-10.7,10.4c0,0-0.1,0.1-0.1,0.1c-8,8-17.3,12.3-28.5,13.3c-2.3,0.2-4.6,0.3-6.9,0.3c0,0,0,0,0,0
			c-18,0-34.9-5.5-46-9.6c-33.2-12.3-64-30.8-97-58.2c-11.9-9.9-23.2-20.7-33.7-31.9c-0.2-0.2-0.4-0.5-0.7-0.7
			c-11.3-10.5-22-21.8-31.9-33.6c-27.4-33-45.9-63.8-58.2-97c-4.8-13-11-32.6-9.3-52.9c1-11.2,5.4-20.6,13.3-28.5
			c0,0,0.1-0.1,0.1-0.1L73,142.1c5.4-5.1,11.5-7.8,17.6-7.8c6.1,0,12,2.7,17.2,7.8c0.1,0.1,0.2,0.2,0.3,0.3
			c4.9,4.5,9.8,9.5,14.3,14.1c2.4,2.5,4.8,5,7.2,7.4l22,22c11.4,11.4,11.4,24.5,0,35.9c-1.1,1.1-2.2,2.2-3.3,3.3
			c-1.1,1.1-2.2,2.3-3.4,3.5l-1.7,1.7c-5.2,5.3-10.6,10.7-16.2,15.9c-4.2,3.9-5.5,10-3.1,15.3c5.3,11.7,12.6,23.3,23,36.4
			c0,0,0.1,0.1,0.1,0.1c10.8,13.2,56.2,58.6,69.4,69.4c0,0,0.1,0.1,0.1,0.1c13.2,10.4,24.8,17.8,36.4,23c5.2,2.4,11.4,1.1,15.3-3.1
			c5.2-5.6,10.6-11,15.9-16.2l1.7-1.7c1.1-1.1,2.2-2.2,3.4-3.3c1.1-1.1,2.2-2.2,3.3-3.3c5.6-5.6,11.8-8.6,18-8.6s12.4,3,18,8.6
			l21.9,21.9c2.4,2.4,4.9,4.8,7.4,7.2c4.6,4.5,9.6,9.3,14.1,14.3c0.1,0.1,0.2,0.2,0.3,0.3c3.6,3.6,7.8,9.5,7.8,17.2
			C380,429.9,377.3,435.9,372.2,441.3z"/>
		<path d="M275.6,258.2H242c0.1-4,6.3-8.3,13.5-13.2c12.3-8.4,27.7-19,27.7-37.2c0-18.8-16.7-28.9-32.4-28.9
			c-15.3,0-31.5,9.4-31.5,26.9c0,8,3.6,12.1,10.7,12.1c8,0,12.3-4.6,12.3-8.9c0-7.2,4.7-8.7,8.7-8.7c6.5,0,8.8,4.4,8.8,8.1
			c0,7.3-9.1,14-18.8,21.1c-11.4,8.4-23.2,17-23.2,28.7v12.9c0,4.8,6.1,7.7,10.4,7.7h47.5c4,0,7.6-4.9,7.6-10.5
			C283.2,262.9,279.8,258.2,275.6,258.2z"/>
		<path d="M346.7,236.6h-4.4v-8c0-4.6-4.6-7.6-11.7-7.6c-7.1,0-11.7,3-11.7,7.6v8h-8l22.7-45.5c0.4-0.9,0.8-2,0.8-3.1
			c0-5.7-7.6-9.2-11.7-9.2c-4.3,0-7.8,2.1-9.9,6.1l-30.8,60.4c-1.1,2-1.2,3.7-1.2,4.6c0,5.1,3.3,8.5,8.3,8.5h29.9v12.8
			c0,5.3,6.1,7.7,11.7,7.7c5.6,0,11.7-2.4,11.7-7.7v-12.8h4.4c4,0,7.7-5.3,7.7-10.9C354.4,242.2,352,236.6,346.7,236.6z"/>
	</g>
</g>
</svg>
