<svg xmlns="http://www.w3.org/2000/svg" width="274.61" height="152.47" viewBox="0 0 274.61 152.47"><defs><style>.cls-1{fill:#0a1a5c;}.cls-1,.cls-2{fill-rule:evenodd;}.cls-2{fill:#d2ab67;}</style></defs><title>final-logo</title><g id="Layer_2" data-name="Layer 2"><g id="Layer_1-2" data-name="Layer 1"><polygon class="cls-1" points="258.7 104.81 266.29 20.66 249.36 20.66 241.69 104.81 258.7 104.81 258.7 104.81"/><path class="cls-1" d="M258.7,104.81l7.59-84.14H249.36l-7.67,84.14Zm15.16-83.49-7.59,84.14-.63,7H233.36l.76-8.32L241.78,20l.63-6.95h32.19Z"/><path class="cls-1" d="M217.9,122.07a10.84,10.84,0,0,1,4.42.89,11.06,11.06,0,0,1,6,6,11.49,11.49,0,0,1,0,8.87,11.61,11.61,0,0,1-2.41,3.66,11.43,11.43,0,0,1-12.48,2.43,11.11,11.11,0,0,1-6.1-6.1,11.5,11.5,0,0,1,0-8.87,10.71,10.71,0,0,1,2.43-3.61,11.58,11.58,0,0,1,3.66-2.41A10.88,10.88,0,0,1,217.9,122.07Z"/><path class="cls-1" d="M217.9,114.44a19.3,19.3,0,0,1,3.8.4v0a17.71,17.71,0,0,1,3.69,1.17h0a18.67,18.67,0,0,1,3.06,1.65h0a18.71,18.71,0,0,1,5.18,5.17v0a18.75,18.75,0,0,1,1.65,3.07h0a17.81,17.81,0,0,1,1.14,3.7,19.5,19.5,0,0,1,.4,3.82,19.3,19.3,0,0,1-.4,3.8,17.9,17.9,0,0,1-1.14,3.69h0a18.69,18.69,0,0,1-3.93,5.9l0,0a18.08,18.08,0,0,1-2.83,2.38,18.69,18.69,0,0,1-3.14,1.69h0a17.71,17.71,0,0,1-3.69,1.17v0a19,19,0,0,1-7.62,0h0a17.75,17.75,0,0,1-3.7-1.17h0a19.14,19.14,0,0,1-3.1-1.67,18.75,18.75,0,0,1-2.89-2.34v0A18.63,18.63,0,0,1,202,144a19.13,19.13,0,0,1-1.66-3.1h0a17.76,17.76,0,0,1-1.17-3.69h0a18.26,18.26,0,0,1,0-7.58h0a17.8,17.8,0,0,1,1.17-3.73h0a18.51,18.51,0,0,1,1.69-3.11v0a18.26,18.26,0,0,1,2.41-2.86,19.12,19.12,0,0,1,2.84-2.27v0a19.21,19.21,0,0,1,3.06-1.63h0a17.74,17.74,0,0,1,3.7-1.17h0a19.48,19.48,0,0,1,3.82-.37Zm-2.33,7.86h0a10.08,10.08,0,0,0-2.12.67,11.58,11.58,0,0,0-3.66,2.41,10.71,10.71,0,0,0-2.43,3.61,11.5,11.5,0,0,0,0,8.87,11.11,11.11,0,0,0,6.1,6.1,10.07,10.07,0,0,0,2.12.67h0a11.88,11.88,0,0,0,2.33.22,11.32,11.32,0,0,0,8-3.32,11.61,11.61,0,0,0,2.41-3.66,11.49,11.49,0,0,0,0-8.87,11.06,11.06,0,0,0-6-6,10.84,10.84,0,0,0-4.42-.89,11.89,11.89,0,0,0-2.33.22Zm-1.49,29.8h0Z"/><path class="cls-1" d="M198.54,30.4a10.91,10.91,0,0,1-4.45-.89,11.29,11.29,0,0,1-6.12-6.1,10.91,10.91,0,0,1-.89-4.45,11.19,11.19,0,0,1,3.35-8,11.52,11.52,0,0,1,3.66-2.41,11.56,11.56,0,0,1,8.9,0,11.41,11.41,0,0,1,3.64,2.41,12.06,12.06,0,0,1,2.46,3.61,11.2,11.2,0,0,1,0,8.87,12.66,12.66,0,0,1-2.46,3.66A11.09,11.09,0,0,1,203,29.51,10.91,10.91,0,0,1,198.54,30.4Z"/><path class="cls-1" d="M198.54,38a19.36,19.36,0,0,1-3.79-.37A17.89,17.89,0,0,1,191,36.49h0a19.08,19.08,0,0,1-3.1-1.67A18.67,18.67,0,0,1,185,32.47v0a19.15,19.15,0,0,1-2.35-2.86,18.84,18.84,0,0,1-1.7-3.11h0a17.81,17.81,0,0,1-1.14-3.7,19.5,19.5,0,0,1-.4-3.82,19.3,19.3,0,0,1,.4-3.8A17.9,17.9,0,0,1,181,11.47h0a18.36,18.36,0,0,1,1.72-3.15,18.59,18.59,0,0,1,2.4-2.85h0A19.13,19.13,0,0,1,188,3.21v0A19.17,19.17,0,0,1,191,1.55h0A17.8,17.8,0,0,1,194.75.37v0a19.07,19.07,0,0,1,7.61,0h0a17.8,17.8,0,0,1,3.7,1.17h0a18.84,18.84,0,0,1,3.08,1.66A19.42,19.42,0,0,1,212,5.5l0,0a19.11,19.11,0,0,1,2.3,2.8A20.56,20.56,0,0,1,216,11.41l0,.06a18.37,18.37,0,0,1,1.16,3.69,18.76,18.76,0,0,1,.41,3.8,18.94,18.94,0,0,1-.41,3.82,18.25,18.25,0,0,1-1.16,3.7l0,.06a21.33,21.33,0,0,1-1.7,3h0a19.73,19.73,0,0,1-2.3,2.81l0,.06a19.7,19.7,0,0,1-6,4h0a17.9,17.9,0,0,1-3.73,1.17,19.36,19.36,0,0,1-3.79.37Zm0-7.64a10.91,10.91,0,0,1-4.45-.89,11.29,11.29,0,0,1-6.12-6.1,10.91,10.91,0,0,1-.89-4.45,11.19,11.19,0,0,1,3.35-8,11.52,11.52,0,0,1,3.66-2.41,11.56,11.56,0,0,1,8.9,0,11.41,11.41,0,0,1,3.64,2.41,12.06,12.06,0,0,1,2.46,3.61,11.2,11.2,0,0,1,0,8.87,12.66,12.66,0,0,1-2.46,3.66A11.09,11.09,0,0,1,203,29.51a10.91,10.91,0,0,1-4.45.89Zm3.82-30h0Z"/><path class="cls-1" d="M196,122.07a7.25,7.25,0,0,0,1.49-1.81,6.63,6.63,0,0,0,.73-2.88l1.15-12.58h29.56l5.21-57.14h-17l-3.77,42.07H200.66l3.69-42.07h-17l-6.28,69.72a7,7,0,0,1-.65,2.25,15.24,15.24,0,0,1-1.57,2.41Z"/><path class="cls-1" d="M202.66,126.06a16.77,16.77,0,0,1-1.56,1.65l-5.13,2-17.08,0-15.46,0,9.44-12.23q.34-.44.55-.77l.15-.23L179.82,47l.63-7h62l-.76,8.32-5.21,57.14-.63,6.95H206.29l-.51,5.54h0a18.1,18.1,0,0,1-.47,2.94,11.78,11.78,0,0,1-1.39,3.33,13.88,13.88,0,0,1-1.28,1.8Zm-6.69-4a7.25,7.25,0,0,0,1.49-1.81,6.63,6.63,0,0,0,.73-2.88l1.15-12.58h29.56l5.21-57.14h-17l-3.77,42.07H200.66l3.69-42.07h-17l-6.28,69.72a7,7,0,0,1-.65,2.25,15.24,15.24,0,0,1-1.57,2.41l17.08,0Zm-22.41-5.62v0h0v0Zm.1-.22v0Z"/><polygon class="cls-1" points="169.38 104.81 176.97 20.66 160.04 20.66 152.38 104.81 169.38 104.81 169.38 104.81"/><path class="cls-1" d="M169.38,104.81,177,20.66H160l-7.67,84.14Zm15.16-83.49L177,105.46l-.63,7H144l.76-8.32L152.47,20,153.1,13h32.19Z"/><path class="cls-1" d="M136.5,122.07a10.47,10.47,0,0,0,1.47-1.81,6.27,6.27,0,0,0,.76-2.88l6.07-69.72H127.92l-6.28,69.72a7.15,7.15,0,0,1-.68,2.28,23.27,23.27,0,0,1-1.54,2.41Z"/><path class="cls-1" d="M143.2,126a19.32,19.32,0,0,1-1.3,1.47l-5.4,2.24H104.58l8.63-12.08c.34-.48.57-.81.68-1l.21-.32L120.34,47l.63-7h32.15l-.72,8.29L146.33,118h0a17.73,17.73,0,0,1-.5,2.94,11.45,11.45,0,0,1-1.54,3.52h0a17.58,17.58,0,0,1-1.09,1.5Zm-6.7-3.93a10.47,10.47,0,0,0,1.47-1.81,6.27,6.27,0,0,0,.76-2.88l6.07-69.72H127.92l-6.28,69.72a7.15,7.15,0,0,1-.68,2.28,23.27,23.27,0,0,1-1.54,2.41Zm-22.41-5.61v-.06l0,.05Zm0-.1h0S114.1,116.4,114.11,116.37Z"/><path class="cls-1" d="M109.25,30.4a10.91,10.91,0,0,1-4.45-.89,11.29,11.29,0,0,1-6.12-6.1A10.91,10.91,0,0,1,97.79,19a11.19,11.19,0,0,1,3.35-8,11.52,11.52,0,0,1,3.66-2.41,11.56,11.56,0,0,1,8.9,0,11.41,11.41,0,0,1,3.64,2.41,12.07,12.07,0,0,1,2.46,3.61,11.2,11.2,0,0,1,0,8.87,12.66,12.66,0,0,1-2.46,3.66,11.09,11.09,0,0,1-3.64,2.43A10.91,10.91,0,0,1,109.25,30.4Z"/><path class="cls-1" d="M109.25,38a19.36,19.36,0,0,1-3.79-.37,17.9,17.9,0,0,1-3.73-1.17h0a19.07,19.07,0,0,1-3.1-1.67,18.66,18.66,0,0,1-2.89-2.34l0,0a19.15,19.15,0,0,1-2.35-2.86,18.84,18.84,0,0,1-1.7-3.11h0a17.79,17.79,0,0,1-1.14-3.7,19.52,19.52,0,0,1-.4-3.82,19.31,19.31,0,0,1,.4-3.8,17.87,17.87,0,0,1,1.14-3.69h0a18.36,18.36,0,0,1,1.72-3.15,18.6,18.6,0,0,1,2.4-2.85h0a19.14,19.14,0,0,1,2.84-2.27v0a19.18,19.18,0,0,1,3.06-1.63h0a17.8,17.8,0,0,1,3.7-1.17h0a19.07,19.07,0,0,1,7.61,0v0a17.79,17.79,0,0,1,3.73,1.17h0a18.85,18.85,0,0,1,3.08,1.66,19.43,19.43,0,0,1,2.82,2.3l0,0A19,19,0,0,1,125,8.3v0a20.65,20.65,0,0,1,1.74,3.08l0,.06a18.37,18.37,0,0,1,1.16,3.69,18.76,18.76,0,0,1,.41,3.8,18.94,18.94,0,0,1-.41,3.82,18.25,18.25,0,0,1-1.16,3.7l0,.06a21.43,21.43,0,0,1-1.68,3.06h0a19.62,19.62,0,0,1-2.27,2.81l0,.06a19.7,19.7,0,0,1-6,4h0A17.89,17.89,0,0,1,113,37.66a19.36,19.36,0,0,1-3.79.37Zm0-7.64a10.91,10.91,0,0,1-4.45-.89,11.29,11.29,0,0,1-6.12-6.1A10.91,10.91,0,0,1,97.79,19a11.19,11.19,0,0,1,3.35-8,11.52,11.52,0,0,1,3.66-2.41,11.56,11.56,0,0,1,8.9,0,11.41,11.41,0,0,1,3.64,2.41,12.07,12.07,0,0,1,2.46,3.61,11.2,11.2,0,0,1,0,8.87,12.66,12.66,0,0,1-2.46,3.66,11.09,11.09,0,0,1-3.64,2.43A10.91,10.91,0,0,1,109.25,30.4Z"/><path class="cls-1" d="M93,104.81h16.93l5.23-57.14h-17l-1.7,19v.19q-.13,1.64-.27,3.32L94.37,89.66h0v.08l-10.59.05,1.38-15.21a94.25,94.25,0,0,0,.2-9.87A27,27,0,0,0,83.38,55a11.37,11.37,0,0,0-4.79-5.38q-3.3-2-9-2a23.2,23.2,0,0,0-10.16,2.11,22.19,22.19,0,0,0-7.5,5.89,33.06,33.06,0,0,0-5.86,10.8A58.57,58.57,0,0,0,43.55,78L43.19,82A22.23,22.23,0,0,0,44,89.79l-17.37-.05,1.47-17q.26-3,.66-6l4.15-46.16H16L8.33,104.81H93ZM70,89.86H64.32a13.71,13.71,0,0,1-5-.85,8.06,8.06,0,0,1-3.57-2.81A9.94,9.94,0,0,1,54,82a19.53,19.53,0,0,1,0-5.87,36.9,36.9,0,0,1,1.53-6.94A29.59,29.59,0,0,1,58,63.73a15.68,15.68,0,0,1,4.26-5A8.13,8.13,0,0,1,67,57a25.12,25.12,0,0,1,2.82.14,6.45,6.45,0,0,1,2.2.62,4.65,4.65,0,0,1,1.63,1.43,8.39,8.39,0,0,1,1.2,2.52,16.3,16.3,0,0,1,.45,4.82c0,2-.24,4.76-.54,8.17l-1,11.6-.34,3.51Z"/><path class="cls-1" d="M109.91,112.44H0l.76-8.32L8.42,20,9.06,13H41.25l-.75,8.29L36.35,67.48l0,.36c-.1.72-.21,1.64-.34,2.78-.08.69-.17,1.61-.27,2.79v0L35,82.15h.6q0-.28,0-.56l0-.3L36,77.37v-.24q.42-3.47,1.12-6.7A62.12,62.12,0,0,1,38.86,64h0a44.23,44.23,0,0,1,3-7.07v0h0a38.1,38.1,0,0,1,4.2-6.19,30.4,30.4,0,0,1,4.59-4.5h0a29.6,29.6,0,0,1,5.43-3.37h0a28,28,0,0,1,6.49-2.18h0a34.22,34.22,0,0,1,7-.71,31.47,31.47,0,0,1,6.71.67,20.59,20.59,0,0,1,6.17,2.37,19.66,19.66,0,0,1,4.67,3.81,18.7,18.7,0,0,1,3,4.54l.4-4.42.63-7h32.32l-.76,8.32-5.23,57.14-.64,6.95ZM48.59,60.62h0a36.38,36.38,0,0,0-2.51,5.84A58.57,58.57,0,0,0,43.55,78L43.19,82A22.23,22.23,0,0,0,44,89.79l-17.37-.05,1.47-17q.26-3,.66-6l4.15-46.16H16L8.33,104.81H109.91l5.23-57.14h-17l-1.7,19v.19q-.13,1.64-.27,3.32L94.37,89.66h0v.08l-10.59.05,1.38-15.21a94.25,94.25,0,0,0,.2-9.87A27,27,0,0,0,83.38,55a11.37,11.37,0,0,0-4.79-5.38q-3.3-2-9-2a23.2,23.2,0,0,0-10.16,2.11,22.19,22.19,0,0,0-7.5,5.89,30.37,30.37,0,0,0-3.34,5ZM54.66,84.3h0A11.23,11.23,0,0,1,54,82a19.53,19.53,0,0,1,0-5.87,36.9,36.9,0,0,1,1.53-6.94A29.59,29.59,0,0,1,58,63.73a15.68,15.68,0,0,1,4.26-5A8.13,8.13,0,0,1,67,57a25.12,25.12,0,0,1,2.82.14,6.45,6.45,0,0,1,2.2.62l-1.91,3.74,0,0,1.89-3.72a4.65,4.65,0,0,1,1.63,1.43,8.39,8.39,0,0,1,1.2,2.52,16.3,16.3,0,0,1,.45,4.82c0,2-.24,4.76-.54,8.17l-1,11.6-.34,3.51H64.32a13.71,13.71,0,0,1-5-.85,8.06,8.06,0,0,1-3.57-2.81,8.88,8.88,0,0,1-1.06-1.91Zm9.66-2.07h2.15l.72-8.13c.18-2,.3-3.55.37-4.46.1-1.47.16-2.57.18-3.24s0-1.24,0-1.73h-.56a2.27,2.27,0,0,0-.44.26,5.55,5.55,0,0,0-.95.88,11.42,11.42,0,0,0-1.19,1.72,17.33,17.33,0,0,0-.88,1.76q-.51,1.17-.88,2.29a26.08,26.08,0,0,0-.67,2.54q-.37,1.68-.54,3v0a18.1,18.1,0,0,0-.17,2.19,7.72,7.72,0,0,0,.09,1.35,3.9,3.9,0,0,0,.19.73h0a1.39,1.39,0,0,0,.16.3,1.49,1.49,0,0,0,.16.19h0l0,0a4.07,4.07,0,0,0,.81.22,9,9,0,0,0,1.44.09Zm-2.62-.79v0h0v0Zm7.43-17.9v0l.05-.11h0l0,.07Zm.42-.82v0l.07-.13h0l0,.08Zm-.42.85v0l-.47.91h0l.45-.88Zm1-2,0,0,0,0,0,0,0,0Zm0,0-.19.37h0l.2-.38,0,0Zm-.2.39-.34.66h0l.34-.66Zm-.38.74-.37.72h0l.34-.67v0Zm-.88,1.73-.06.12h0l.07-.13Z"/><polygon class="cls-1" points="258.7 104.81 266.29 20.66 249.36 20.66 241.69 104.81 258.7 104.81 258.7 104.81"/><path class="cls-2" d="M258.7,104.81l7.59-84.14H249.36l-7.67,84.14ZM270.07,21l-7.59,84.14-.31,3.49H237.52l.38-4.16,7.67-84.14.32-3.47h24.56Z"/><path class="cls-1" d="M217.9,122.07a10.84,10.84,0,0,1,4.42.89,11.06,11.06,0,0,1,6,6,11.49,11.49,0,0,1,0,8.87,11.61,11.61,0,0,1-2.41,3.66,11.43,11.43,0,0,1-12.48,2.43,11.11,11.11,0,0,1-6.1-6.1,11.5,11.5,0,0,1,0-8.87,10.71,10.71,0,0,1,2.43-3.61,11.58,11.58,0,0,1,3.66-2.41A10.88,10.88,0,0,1,217.9,122.07Z"/><path class="cls-2" d="M217.9,118.25a15.49,15.49,0,0,1,3.05.31h0a13.92,13.92,0,0,1,2.9.92h0a14.93,14.93,0,0,1,2.5,1.34h0a14.87,14.87,0,0,1,4.12,4.12h0a15,15,0,0,1,1.34,2.5h0a14,14,0,0,1,.91,2.91,15.65,15.65,0,0,1,.31,3.07,15.47,15.47,0,0,1-.31,3.05,14.06,14.06,0,0,1-.91,2.9h0a15.63,15.63,0,0,1-1.33,2.51,15.35,15.35,0,0,1-1.83,2.27h0a14.36,14.36,0,0,1-2.25,1.88,14.9,14.9,0,0,1-2.54,1.37h0a13.92,13.92,0,0,1-2.9.92h0a15.49,15.49,0,0,1-3.05.31,15.69,15.69,0,0,1-3.08-.3h0a13.92,13.92,0,0,1-2.91-.92h0a15.37,15.37,0,0,1-2.53-1.36,14.87,14.87,0,0,1-2.29-1.86v0a14.86,14.86,0,0,1-1.87-2.28,15.34,15.34,0,0,1-1.35-2.53h0a14,14,0,0,1-.92-2.9h0a15.48,15.48,0,0,1-.31-3.05,15.66,15.66,0,0,1,.31-3.06h0a14,14,0,0,1,.92-2.92h0a14.76,14.76,0,0,1,1.37-2.52v0a14.42,14.42,0,0,1,1.9-2.27,15.31,15.31,0,0,1,2.28-1.82v0a15.49,15.49,0,0,1,2.5-1.33h0a13.92,13.92,0,0,1,2.91-.92h0a15.69,15.69,0,0,1,3.08-.3Zm-2.33,4h0a10.08,10.08,0,0,0-2.12.67,11.58,11.58,0,0,0-3.66,2.41,10.71,10.71,0,0,0-2.43,3.61,11.5,11.5,0,0,0,0,8.87,11.11,11.11,0,0,0,6.1,6.1,10.07,10.07,0,0,0,2.12.67h0a11.88,11.88,0,0,0,2.33.22,11.32,11.32,0,0,0,8-3.32,11.61,11.61,0,0,0,2.41-3.66,11.49,11.49,0,0,0,0-8.87,11.06,11.06,0,0,0-6-6,10.84,10.84,0,0,0-4.42-.89,11.89,11.89,0,0,0-2.33.22Zm-.75,26.06h0Z"/><path class="cls-1" d="M198.54,30.4a10.91,10.91,0,0,1-4.45-.89,11.29,11.29,0,0,1-6.12-6.1,10.91,10.91,0,0,1-.89-4.45,11.19,11.19,0,0,1,3.35-8,11.52,11.52,0,0,1,3.66-2.41,11.56,11.56,0,0,1,8.9,0,11.41,11.41,0,0,1,3.64,2.41,12.06,12.06,0,0,1,2.46,3.61,11.2,11.2,0,0,1,0,8.87,12.66,12.66,0,0,1-2.46,3.66A11.09,11.09,0,0,1,203,29.51,10.91,10.91,0,0,1,198.54,30.4Z"/><path class="cls-2" d="M198.54,34.21a15.62,15.62,0,0,1-3.06-.3,14,14,0,0,1-2.92-.92h0A15.3,15.3,0,0,1,190,31.64a14.81,14.81,0,0,1-2.29-1.86h0a15.28,15.28,0,0,1-1.89-2.29,15,15,0,0,1-1.37-2.53h0a14,14,0,0,1-.91-2.91,15.65,15.65,0,0,1-.31-3.07,15.47,15.47,0,0,1,.31-3.05,14.06,14.06,0,0,1,.91-2.9h0a14.54,14.54,0,0,1,1.38-2.53,14.79,14.79,0,0,1,1.91-2.27h0A15.22,15.22,0,0,1,190,6.38v0A15.49,15.49,0,0,1,192.55,5h0a13.94,13.94,0,0,1,2.92-.92h0a15.68,15.68,0,0,1,6.14,0h0a14,14,0,0,1,2.91.92h0A15.13,15.13,0,0,1,207,6.38a15.5,15.5,0,0,1,2.26,1.83h0a15.26,15.26,0,0,1,1.84,2.23A16.74,16.74,0,0,1,212.56,13l0,0a14.5,14.5,0,0,1,.92,2.92,15,15,0,0,1,.32,3A15.13,15.13,0,0,1,213.5,22a14.42,14.42,0,0,1-.92,2.93l0,0a17.49,17.49,0,0,1-1.39,2.5h0a15.8,15.8,0,0,1-1.84,2.25v0a15.37,15.37,0,0,1-4.8,3.22h0a14,14,0,0,1-2.92.92,15.63,15.63,0,0,1-3.06.3Zm0-3.82a10.91,10.91,0,0,1-4.45-.89,11.29,11.29,0,0,1-6.12-6.1,10.91,10.91,0,0,1-.89-4.45,11.19,11.19,0,0,1,3.35-8,11.52,11.52,0,0,1,3.66-2.41,11.56,11.56,0,0,1,8.9,0,11.41,11.41,0,0,1,3.64,2.41,12.06,12.06,0,0,1,2.46,3.61,11.2,11.2,0,0,1,0,8.87,12.66,12.66,0,0,1-2.46,3.66A11.09,11.09,0,0,1,203,29.51a10.91,10.91,0,0,1-4.45.89Zm3.08-26.28h0Z"/><path class="cls-1" d="M196,122.07a7.25,7.25,0,0,0,1.49-1.81,6.63,6.63,0,0,0,.73-2.88l1.15-12.58h29.56l5.21-57.14h-17l-3.77,42.07H200.66l3.69-42.07h-17l-6.28,69.72a7,7,0,0,1-.65,2.25,15.24,15.24,0,0,1-1.57,2.41Z"/><path class="cls-2" d="M199.74,123.63a12.81,12.81,0,0,1-1.2,1.26l-2.56,1-17.08,0h-7.73l4.72-6.12q.44-.56.73-1a8,8,0,0,0,.45-.76,2.69,2.69,0,0,0,.15-.42,4.33,4.33,0,0,0,.13-.58l6.27-69.61.31-3.49h24.59L208.15,48l-3.33,37.93h5l3.45-38.58.31-3.49h24.65L237.91,48l-5.21,57.14-.32,3.47H202.82l-.83,9.06h0a14.27,14.27,0,0,1-.36,2.31,8,8,0,0,1-.92,2.25,10,10,0,0,1-1,1.38ZM196,122.07a7.25,7.25,0,0,0,1.49-1.81,6.63,6.63,0,0,0,.73-2.88l1.15-12.58h29.56l5.21-57.14h-17l-3.77,42.07H200.66l3.69-42.07h-17l-6.28,69.72a7,7,0,0,1-.65,2.25,15.24,15.24,0,0,1-1.57,2.41Z"/><polygon class="cls-1" points="169.38 104.81 176.97 20.66 160.04 20.66 152.38 104.81 169.38 104.81 169.38 104.81"/><path class="cls-2" d="M169.38,104.81,177,20.66H160l-7.67,84.14ZM180.76,21l-7.59,84.14-.31,3.49H148.21l.38-4.16,7.67-84.14.32-3.47h24.56Z"/><path class="cls-1" d="M136.5,122.07a10.47,10.47,0,0,0,1.47-1.81,6.27,6.27,0,0,0,.76-2.88l6.07-69.72H127.92l-6.28,69.72a7.15,7.15,0,0,1-.68,2.28,23.27,23.27,0,0,1-1.54,2.41Z"/><path class="cls-2" d="M140.24,123.6a15.12,15.12,0,0,1-1,1.17l-2.7,1.12H112l4.32-6c.33-.47.6-.85.78-1.14s.33-.52.43-.7a3.89,3.89,0,0,0,.22-.53,3.42,3.42,0,0,0,.1-.55h0l6.27-69.59.31-3.49H149L148.6,48l-6.07,69.72h0a13.85,13.85,0,0,1-.38,2.31,7.67,7.67,0,0,1-1,2.36h0a13.88,13.88,0,0,1-.88,1.22Zm-3.75-1.53a10.47,10.47,0,0,0,1.47-1.81,6.27,6.27,0,0,0,.76-2.88l6.07-69.72H127.92l-6.28,69.72a7.15,7.15,0,0,1-.68,2.28,23.27,23.27,0,0,1-1.54,2.41Z"/><path class="cls-1" d="M109.25,30.4a10.91,10.91,0,0,1-4.45-.89,11.29,11.29,0,0,1-6.12-6.1A10.91,10.91,0,0,1,97.79,19a11.19,11.19,0,0,1,3.35-8,11.52,11.52,0,0,1,3.66-2.41,11.56,11.56,0,0,1,8.9,0,11.41,11.41,0,0,1,3.64,2.41,12.07,12.07,0,0,1,2.46,3.61,11.2,11.2,0,0,1,0,8.87,12.66,12.66,0,0,1-2.46,3.66,11.09,11.09,0,0,1-3.64,2.43A10.91,10.91,0,0,1,109.25,30.4Z"/><path class="cls-2" d="M109.25,34.21a15.63,15.63,0,0,1-3.06-.3,14,14,0,0,1-2.92-.92h0a15.31,15.31,0,0,1-2.53-1.36,14.81,14.81,0,0,1-2.29-1.86h0a15.28,15.28,0,0,1-1.89-2.29,15,15,0,0,1-1.37-2.53h0A14,14,0,0,1,94.29,22,15.65,15.65,0,0,1,94,19a15.47,15.47,0,0,1,.31-3.05,14,14,0,0,1,.91-2.9h0a14.52,14.52,0,0,1,1.38-2.53A14.78,14.78,0,0,1,98.49,8.2h0a15.23,15.23,0,0,1,2.27-1.82v0A15.5,15.5,0,0,1,103.27,5h0a14,14,0,0,1,2.91-.92h0a15.68,15.68,0,0,1,6.14,0h0a13.94,13.94,0,0,1,2.92.92h0a15.14,15.14,0,0,1,2.51,1.35A15.53,15.53,0,0,1,120,8.22h0a15.18,15.18,0,0,1,1.84,2.22h0A16.81,16.81,0,0,1,123.27,13l0,0a14.5,14.5,0,0,1,.92,2.92,15,15,0,0,1,.32,3,15.13,15.13,0,0,1-.32,3.06,14.42,14.42,0,0,1-.92,2.93l0,0a17.56,17.56,0,0,1-1.38,2.51h0a15.75,15.75,0,0,1-1.83,2.25v0a15.37,15.37,0,0,1-4.8,3.22h0a14,14,0,0,1-2.92.92,15.62,15.62,0,0,1-3.06.3Zm0-3.82a10.91,10.91,0,0,1-4.45-.89,11.29,11.29,0,0,1-6.12-6.1A10.91,10.91,0,0,1,97.79,19a11.19,11.19,0,0,1,3.35-8,11.52,11.52,0,0,1,3.66-2.41,11.56,11.56,0,0,1,8.9,0,11.41,11.41,0,0,1,3.64,2.41,12.07,12.07,0,0,1,2.46,3.61,11.2,11.2,0,0,1,0,8.87,12.66,12.66,0,0,1-2.46,3.66,11.09,11.09,0,0,1-3.64,2.43A10.91,10.91,0,0,1,109.25,30.4Z"/><path class="cls-1" d="M93,104.81h16.93l5.23-57.14h-17l-1.7,19v.19q-.13,1.64-.27,3.32L94.37,89.66h0v.08l-10.59.05,1.38-15.21a94.25,94.25,0,0,0,.2-9.87A27,27,0,0,0,83.38,55a11.37,11.37,0,0,0-4.79-5.38q-3.3-2-9-2a23.2,23.2,0,0,0-10.16,2.11,22.19,22.19,0,0,0-7.5,5.89,33.06,33.06,0,0,0-5.86,10.8A58.57,58.57,0,0,0,43.55,78L43.19,82A22.23,22.23,0,0,0,44,89.79l-17.37-.05,1.47-17q.26-3,.66-6l4.15-46.16H16L8.33,104.81H93ZM70,89.86H64.32a13.71,13.71,0,0,1-5-.85,8.06,8.06,0,0,1-3.57-2.81A9.94,9.94,0,0,1,54,82a19.53,19.53,0,0,1,0-5.87,36.9,36.9,0,0,1,1.53-6.94A29.59,29.59,0,0,1,58,63.73a15.68,15.68,0,0,1,4.26-5A8.13,8.13,0,0,1,67,57a25.12,25.12,0,0,1,2.82.14,6.45,6.45,0,0,1,2.2.62,4.65,4.65,0,0,1,1.63,1.43,8.39,8.39,0,0,1,1.2,2.52,16.3,16.3,0,0,1,.45,4.82c0,2-.24,4.76-.54,8.17l-1,11.6-.34,3.51Z"/><path class="cls-2" d="M48.59,60.62h0a36.38,36.38,0,0,0-2.51,5.84A58.57,58.57,0,0,0,43.55,78L43.19,82A22.23,22.23,0,0,0,44,89.79l-17.37-.05,1.47-17q.26-3,.66-6l4.15-46.16H16L8.33,104.81H109.91l5.23-57.14h-17l-1.7,19v.19q-.13,1.64-.27,3.32L94.37,89.66h0v.08l-10.59.05,1.38-15.21a94.25,94.25,0,0,0,.2-9.87A27,27,0,0,0,83.38,55a11.37,11.37,0,0,0-4.79-5.38q-3.3-2-9-2a23.2,23.2,0,0,0-10.16,2.11,22.19,22.19,0,0,0-7.5,5.89,30.37,30.37,0,0,0-3.34,5Zm61.32,48H4.17l.38-4.16,7.67-84.14.32-3.47H37.09L36.72,21,32.57,67.16v.18q-.17,1.28-.35,2.87c-.09.84-.19,1.8-.28,2.89h0L30.81,85.94l8.64,0a32.77,32.77,0,0,1-.05-4.19l0-.15.35-3.93v-.12q.4-3.28,1.06-6.34a58.14,58.14,0,0,1,1.65-6h0a40.29,40.29,0,0,1,2.76-6.45v0h0A34.26,34.26,0,0,1,49,53.23a26.57,26.57,0,0,1,4-3.93h0a25.78,25.78,0,0,1,4.74-2.95h0a24.19,24.19,0,0,1,5.61-1.88h0a30.48,30.48,0,0,1,6.2-.62,27.75,27.75,0,0,1,5.9.58,16.82,16.82,0,0,1,5,1.92,15.83,15.83,0,0,1,3.76,3.07,15,15,0,0,1,2.59,4.08,26.18,26.18,0,0,1,1.58,5.19,36.74,36.74,0,0,1,.67,5.88q.09,2.36,0,5t-.23,5.3l0,.09-1,11h3v-.11h0l1.44-16h0c.06-.7.11-1.24.14-1.65.06-.74.1-1.26.13-1.64V66.4l0,0,1.7-19,.31-3.49h24.67L118.93,48l-5.23,57.14-.32,3.47ZM54.66,84.3h0A11.23,11.23,0,0,1,54,82a19.53,19.53,0,0,1,0-5.87,36.9,36.9,0,0,1,1.53-6.94A29.59,29.59,0,0,1,58,63.73a15.68,15.68,0,0,1,4.26-5A8.13,8.13,0,0,1,67,57a25.12,25.12,0,0,1,2.82.14,6.45,6.45,0,0,1,2.2.62L70.33,61.2,70,61.08a3.72,3.72,0,0,0-.58-.11c-.38,0-.75-.07-1.09-.09l-1.3,0a3.38,3.38,0,0,0-1.14.21,5.79,5.79,0,0,0-1.44.79,9.37,9.37,0,0,0-1.61,1.5,15.13,15.13,0,0,0-1.6,2.29,21.15,21.15,0,0,0-1.08,2.15q-.55,1.27-1,2.62a29.22,29.22,0,0,0-.79,2.93Q58,75,57.8,76.64v0a21.92,21.92,0,0,0-.2,2.68,11.34,11.34,0,0,0,.15,2,7.5,7.5,0,0,0,.42,1.5h0a5.14,5.14,0,0,0,.61,1.1,4.78,4.78,0,0,0,.89.94h0a3.91,3.91,0,0,0,1,.57,7.84,7.84,0,0,0,1.57.42,12.61,12.61,0,0,0,2.07.15H70v0h0l1-11.6c.16-1.86.29-3.4.37-4.53.1-1.42.16-2.56.18-3.4a20.5,20.5,0,0,0-.06-2.3,7.14,7.14,0,0,0-.23-1.35h0a6,6,0,0,0-.31-.84,3.35,3.35,0,0,0-.31-.54h0a1.47,1.47,0,0,0-.2-.2v0l-.08,0,1.73-3.4a4.65,4.65,0,0,1,1.63,1.43,8.39,8.39,0,0,1,1.2,2.52,16.3,16.3,0,0,1,.45,4.82c0,2-.24,4.76-.54,8.17l-1,11.6-.34,3.51H64.32a13.71,13.71,0,0,1-5-.85,8.06,8.06,0,0,1-3.57-2.81,8.88,8.88,0,0,1-1.06-1.91Zm3.52-1.43v0h0Z"/></g></g></svg>