<?xml version="1.0"?>
<svg xmlns="http://www.w3.org/2000/svg" xmlns:xlink="http://www.w3.org/1999/xlink" version="1.1" id="Layer_1" x="0px" y="0px" viewBox="0 0 512 512" style="enable-background:new 0 0 512 512;" xml:space="preserve" width="512px" height="512px" class=""><g><polygon style="fill:#5CD1B3" points="321.067,265.705 256,233.684 190.933,265.705 190.933,28.788 321.067,28.788 " data-original="#CEE8FA" class="active-path" data-old_color="#CEE8FA"/><g>
	<path style="fill:#2D527C;" d="M496,12.79h-93.869c-8.835,0-16,7.165-16,16s7.165,16,16,16H480V467.21H32V44.79h142.933v220.915   c0,5.526,2.853,10.662,7.546,13.584c4.694,2.92,10.56,3.213,15.518,0.771L256,251.518l58.003,28.544   c2.234,1.099,4.651,1.643,7.062,1.643c2.944,0,5.878-0.811,8.456-2.416c4.693-2.922,7.546-8.058,7.546-13.584V28.79   c0-8.835-7.165-16-16-16H16c-8.835,0-16,7.165-16,16V483.21c0,8.835,7.165,16,16,16h480c8.835,0,16-7.165,16-16V28.79   C512,19.953,504.835,12.79,496,12.79z M211.197,44.79h93.87v195.21l-42.003-20.67c-2.227-1.096-4.645-1.643-7.064-1.643   s-4.837,0.549-7.064,1.643l-42.003,20.67V44.79H211.197z" data-original="#2D527C" class=""/>
	<path style="fill:#2D527C;" d="M257.069,427.868c-29.701,0-53.866-24.165-53.866-53.867s24.165-53.867,53.866-53.867   c8.835,0,16,7.165,16,16s-7.165,16-16,16c-12.056,0-21.866,9.81-21.866,21.867s9.81,21.867,21.866,21.867   c12.058,0,21.867-9.81,21.867-21.867c0-8.835,7.165-16,16-16s16,7.165,16,16C310.936,403.705,286.771,427.868,257.069,427.868z" data-original="#2D527C" class=""/>
</g><rect x="83.2" y="338.799" style="fill:#5CD1B3" width="75.728" height="70.416" data-original="#CEE8FA" class="active-path" data-old_color="#CEE8FA"/><g>
	<path style="fill:#2D527C;" d="M158.928,425.206H83.205c-8.835,0-16-7.165-16-16v-70.41c0-8.835,7.165-16,16-16h75.723   c8.835,0,16,7.165,16,16v70.41C174.928,418.042,167.765,425.206,158.928,425.206z M99.205,393.206h43.723v-38.41H99.205V393.206z" data-original="#2D527C" class=""/>
	<path style="fill:#2D527C;" d="M428.795,356.945h-71.446c-8.835,0-16-7.165-16-16s7.165-16,16-16h71.446c8.835,0,16,7.165,16,16   S437.632,356.945,428.795,356.945z" data-original="#2D527C" class=""/>
	<path style="fill:#2D527C;" d="M428.795,423.058h-71.446c-8.835,0-16-7.165-16-16c0-8.835,7.165-16,16-16h71.446   c8.835,0,16,7.165,16,16C444.795,415.894,437.632,423.058,428.795,423.058z" data-original="#2D527C" class=""/>
</g></g> </svg>
