<svg id="OBJECTS" xmlns="http://www.w3.org/2000/svg" viewBox="0 0 177.74 181.43"><defs><style>.cls-1{fill:#cc080d;}.cls-2{fill:#fff;}.cls-2,.cls-3{fill-rule:evenodd;}.cls-3{fill:#b90c0b;}</style></defs><title>offer bascket</title><rect class="cls-1" width="177.74" height="181.43"/><path class="cls-2" d="M69.67,120.52A5.49,5.49,0,1,1,64.18,126a5.48,5.48,0,0,1,5.49-5.48ZM82.38,74.25V65.5h8.28v8.1Zm-21.88,21H70l-1.22-9.62H57.32ZM77,63.15h-7a5.09,5.09,0,0,0-3.6,1.5h0A5.06,5.06,0,0,0,65,68.25v7.32l-11.56.9a1.09,1.09,0,0,0-.26,0A1.15,1.15,0,0,0,52.44,78l9.12,27.82a1.16,1.16,0,0,0,1.12.87h47.94a4.52,4.52,0,0,1,0,9H65.79A9.29,9.29,0,0,0,56.52,125a1.16,1.16,0,0,0,2.32,0h0a7,7,0,0,1,7-7h44.76A6.84,6.84,0,0,0,112,104.46L118.75,73v-.14L120,67.18c.15-.62,1.53-5.76,6.17-5.76H128a3,3,0,0,0,.71,1.06h0a3.13,3.13,0,0,0,2.22.93h10.16a3.16,3.16,0,0,0,2.23-.93h0a3.14,3.14,0,0,0,0-4.43h0a3.14,3.14,0,0,0-2.22-.92H130.92a3.23,3.23,0,0,0-2.22.92h0A3.46,3.46,0,0,0,128,59.1h-1.85c-6.35,0-8.22,6.72-8.42,7.56v.1l-1,4.84-8.59.7v-4A5.14,5.14,0,0,0,103,63.24H97.43a11.62,11.62,0,0,0,4.94-6.35,9.85,9.85,0,0,0,.35-4.48A5.54,5.54,0,0,0,101,49a3.53,3.53,0,0,0-4.2-.23c-4.53,2.54-8.35,9.81-10,13.27-1.48-1.92-4.17-5-7.29-6.06a3.6,3.6,0,0,0-3.87.64,3.34,3.34,0,0,0-1,2.12,4.26,4.26,0,0,0,.59,2.49,6.29,6.29,0,0,0,1.79,2Zm7.77,0h-.52c-4.17-.4-6.28-1.75-7.06-3.09a1.84,1.84,0,0,1-.29-1.14,1.09,1.09,0,0,1,.3-.71,1.42,1.42,0,0,1,1.48-.13c2.5.91,4.74,3.35,6.07,5.05Zm5.79,0H88.82c1.46-3.17,5-10.14,9.09-12.41a1.35,1.35,0,0,1,1.6,0,3.29,3.29,0,0,1,.94,2,7.34,7.34,0,0,1-.28,3.42c-.94,3-3.79,6.17-9.58,7.06ZM66.27,77.83l1.53-.12.81,6.35H56.82l-1.76-5.37,11.1-.86Zm40.82-3.19,9.09-.7L114,84.07H101.13L102.51,75l4.46-.35ZM69.32,77.56,85.4,76.3l-.52,7.77H70.16ZM87,76.15l14-1.09L99.58,84H86.45Zm-23.5,28.17L61,96.78h9.22l1,7.54Zm50.19-18.71-2.07,9.6H99.45l1.45-9.62Zm-2.4,11.17-1.62,7.54H98.07l1.14-7.54Zm-14.76,7.54H85.08l.5-7.54H97.65Zm-13,0H72.73l-1-7.54H84Zm-12-9.11-1.22-9.62H84.79l-.64,9.62Zm14.12,0,.65-9.62h13l-1.47,9.62Zm18.16,25.28A5.49,5.49,0,1,1,98.37,126a5.48,5.48,0,0,1,5.49-5.48Z"/><path class="cls-3" d="M150,150.51a13.23,13.23,0,1,0-13.23-13.23h0A13.26,13.26,0,0,0,150,150.51Z"/><path class="cls-3" d="M21.07,58a10,10,0,1,0-10-10A10,10,0,0,0,21.07,58Z"/><path class="cls-3" d="M0,91.26a32.78,32.78,0,0,1,32.78,32.8A32.78,32.78,0,0,1,0,156.84Z"/><path class="cls-3" d="M162.57,0A37.17,37.17,0,1,1,88.23,0Z"/><path class="cls-3" d="M169.68,66.22a20.66,20.66,0,0,1,8.06,1.63v37.93a20.6,20.6,0,1,1-8.06-39.56Z"/></svg>