<?xml version="1.0" encoding="utf-8"?>
<!-- Generator: Adobe Illustrator 23.1.0, SVG Export Plug-In . SVG Version: 6.00 Build 0)  -->
<svg version="1.1" id="Layer_1" xmlns="http://www.w3.org/2000/svg" xmlns:xlink="http://www.w3.org/1999/xlink" x="0px" y="0px"
	 viewBox="0 0 512 512" style="enable-background:new 0 0 512 512;" xml:space="preserve">
<style type="text/css">
	.st0{fill:#F35530;}
</style>
<g>
	<g>
		<polygon class="st0" points="453.9,292 453.9,392.1 307.3,392.1 268.6,341.4 307.3,292 		"/>
		<path class="st0" d="M410.8,133.2l18.2,49.2H77.6l-3.3-8.8l109.3-40.4h-74.8c-28,0-50.6,22.7-50.6,50.6l0,0
			c0,28,22.7,50.6,50.6,50.6h345.1V133.2H410.8z"/>
	</g>
	<path d="M108.8,246.6h345.1c6.7,0,12.2-5.5,12.2-12.2V133.2c0-6.7-5.5-12.2-12.2-12.2h-34.5l-24.4-66c-1.1-3-3.4-5.5-6.4-6.9
		c-2.9-1.4-6.3-1.5-9.3-0.4L251.8,94.9c-6.3,2.3-9.6,9.4-7.2,15.7c2.3,6.3,9.4,9.6,15.7,7.2l116-42.9l35.3,95.3H118.7l69.1-25.6
		c0.4-0.1,0.7-0.3,1.1-0.5c0.1-0.1,0.2-0.1,0.4-0.2c0.2-0.1,0.4-0.2,0.7-0.4c0.1-0.1,0.3-0.2,0.4-0.3c0.2-0.1,0.4-0.2,0.5-0.4
		c0.1-0.1,0.3-0.2,0.4-0.3c0.2-0.1,0.3-0.3,0.5-0.4c0.1-0.1,0.3-0.2,0.4-0.4c0.1-0.1,0.3-0.3,0.4-0.4c0.1-0.1,0.2-0.2,0.3-0.4
		c0.1-0.2,0.3-0.3,0.4-0.5c0.1-0.1,0.2-0.2,0.3-0.4c0.2-0.2,0.3-0.5,0.4-0.7c0.1-0.1,0.1-0.2,0.2-0.2c0.2-0.3,0.4-0.7,0.5-1
		c0,0,0-0.1,0-0.1c0.1-0.3,0.3-0.6,0.4-1c0-0.1,0.1-0.2,0.1-0.3c0.1-0.2,0.2-0.5,0.2-0.7c0-0.1,0.1-0.3,0.1-0.4
		c0-0.2,0.1-0.4,0.1-0.7c0-0.2,0-0.3,0.1-0.5c0-0.2,0-0.4,0.1-0.6c0-0.2,0-0.4,0-0.5c0-0.2,0-0.4,0-0.6c0-0.2,0-0.4,0-0.6
		c0-0.2,0-0.4-0.1-0.6c0-0.2,0-0.4-0.1-0.6c0,0,0-0.1,0-0.1c0-0.2-0.1-0.3-0.1-0.5c0-0.2-0.1-0.3-0.1-0.5c-0.2-0.8-0.5-1.5-0.8-2.2
		c0-0.1-0.1-0.2-0.1-0.3c-0.1-0.2-0.3-0.5-0.4-0.7c-0.1-0.1-0.2-0.3-0.3-0.4c-0.1-0.2-0.2-0.4-0.4-0.5c-0.1-0.1-0.2-0.3-0.3-0.4
		c-0.1-0.2-0.3-0.3-0.4-0.4c-0.1-0.1-0.2-0.3-0.4-0.4c-0.1-0.1-0.3-0.3-0.4-0.4c-0.1-0.1-0.3-0.2-0.4-0.4c-0.2-0.1-0.3-0.3-0.5-0.4
		c-0.1-0.1-0.2-0.2-0.4-0.3c-0.3-0.2-0.6-0.4-0.9-0.6c0,0,0,0-0.1,0c-0.3-0.2-0.7-0.4-1-0.5c-0.1,0-0.2-0.1-0.3-0.1
		c-0.3-0.1-0.5-0.2-0.8-0.3c-0.1,0-0.3-0.1-0.4-0.1c-0.2-0.1-0.4-0.1-0.7-0.2c-0.2,0-0.3-0.1-0.5-0.1c-0.2,0-0.4-0.1-0.6-0.1
		c-0.2,0-0.4-0.1-0.6-0.1c-0.2,0-0.3,0-0.5,0c-0.2,0-0.4,0-0.6,0c-0.1,0-0.1,0-0.2,0h-74.8C75,121,47.4,147.7,46,181.2
		c0,0.4-0.1,0.8-0.1,1.3v219.7c0,34.6,28.2,62.8,62.8,62.8h345.1c6.7,0,12.2-5.5,12.2-12.2v-60.7V292c0-6.7-5.5-12.2-12.2-12.2
		H307.3c-3.8,0-7.3,1.7-9.6,4.7L259,333.9c-0.1,0.1-0.2,0.3-0.3,0.4c-0.1,0.1-0.2,0.2-0.2,0.3c-0.2,0.2-0.3,0.5-0.5,0.8
		c0,0.1-0.1,0.2-0.1,0.2c-0.2,0.3-0.3,0.6-0.4,0.9c-0.1,0.1-0.1,0.3-0.2,0.4c-0.1,0.2-0.2,0.4-0.2,0.6c-0.1,0.2-0.1,0.3-0.1,0.5
		c-0.1,0.2-0.1,0.4-0.2,0.6c0,0.2-0.1,0.3-0.1,0.5c0,0.2-0.1,0.5-0.1,0.7c0,0.1,0,0.2,0,0.4c0,0.4-0.1,0.8-0.1,1.1c0,0,0,0,0,0
		c0,0.1,0,0.1,0,0.2c0,0.3,0,0.6,0,0.9c0,0.1,0,0.3,0,0.4c0,0.2,0.1,0.5,0.1,0.7c0,0.2,0.1,0.3,0.1,0.5c0,0.2,0.1,0.4,0.2,0.6
		c0,0.1,0.1,0.3,0.1,0.4c0.1,0.3,0.2,0.5,0.3,0.8c0.1,0.1,0.1,0.3,0.2,0.4c0.1,0.3,0.3,0.6,0.4,0.8c0.1,0.1,0.1,0.2,0.2,0.4
		c0.1,0.2,0.2,0.4,0.4,0.6c0.1,0.1,0.2,0.2,0.3,0.4c0.1,0.1,0.2,0.2,0.2,0.3l38.7,50.7c2.3,3,5.9,4.8,9.7,4.8h134.3v36.2H108.8
		c-21.2,0-38.4-17.2-38.4-38.4V233.5C81,241.7,94.3,246.6,108.8,246.6z M441.6,145.4v24.8h-4.1l-9.2-24.8
		C428.4,145.4,441.6,145.4,441.6,145.4z M108.8,145.4h6.6l-35.5,13.2C86.9,150.5,97.2,145.4,108.8,145.4z M77.6,194.6h351.5h12.6
		v27.6H108.8c-17.4,0-32.1-11.6-36.8-27.6H77.6L77.6,194.6z M313.3,379.9l-20-26.3h25c6.7,0,12.2-5.5,12.2-12.2
		c0-6.7-5.5-12.2-12.2-12.2h-24.6l19.6-25h128.4v75.7L313.3,379.9L313.3,379.9z"/>
</g>
</svg>
